Dactyl Scratch.sfdir
StartChar: !
Encoding: 33 33 0
Width: 226
InSpiro: 1
        Flags: H
        LayerCount: 2
        Back
        SplineSet
60 663 m 0
60 662 l 0
60 241 l 0
60 663 l 0
Z
61 663 m 0
62 662 l 0
62 241 l 0
61 663 l 0
Z
63 663 m 0
64 662 l 0
64 241 l 0
63 663 l 0
Z
62 60 m 0
62 60 62 60 63 61 c 0
63 61 63 61 63 61 c 0
62 62 62 62 62 62 c 0
62 62 62 62 61 63 c 0
61 63 61 63 61 63 c 0
60 62 60 62 60 62 c 0
59 61 59 61 60 61 c 0
60 60 60 60 60 60 c 0
61 59 61 59 62 60 c 0
Z
60 62 m 0
60 62 60 63 60 63 c 0
60 63 61 63 62 64 c 0
62 64 63 63 63 63 c 0
63 63 63 62 64 62 c 0
64 61 63 61 63 60 c 0
63 60 63 60 63 60 c 0
62 59 62 59 62 59 c 0
61 59 61 59 61 60 c 0
60 60 60 60 60 60 c 0
60 61 59 61 60 62 c 0
Z
90 0 m 0
90 30 120 60 150 60 c 0
180 60 210 30 210 0 c 0
210 -30 180 -60 150 -60 c 0
120 -60 90 -30 90 0 c 0
Z
60 62 m 0
60 62 60 62 60 62 c 0
61 63 61 63 62 63 c 0
62 62 62 62 63 62 c 0
63 61 63 61 63 61 c 0
62 60 62 60 62 60 c 0
62 60 62 60 61 59 c 0
61 59 61 59 61 60 c 0
60 60 60 60 60 60 c 0
59 61 59 61 60 62 c 0
Z
Spiro
60 663 v
60 662 v
60 241 v
61 663 v
62 662 v
62 241 v
63 663 v
64 662 v
64 241 v
62 60 c
63 61 c
61 63 c
60 61 c
60 62 c
62 64 c
64 62 c
61 60 c
62 61 c
62 61 c
61 62 c
61 61 c
60 62 c
62 63 c
63 62 c
61 60 c
0 0 z
EndSpiro
EndSplineSet
        Fore
        SplineSet
-16 717 m 0
25 680 l 0
3 211 l 0
-16 717 l 0
Z
43 717 m 0
85 680 l 0
63 211 l 0
43 717 l 0
Z
103 717 m 0
145 680 l 0
123 211 l 0
103 717 l 0
Z
60 6 m 0
73 6 86 12 95 22 c 0
104 32 109 45 110 59 c 0
110 72 105 86 95 96 c 0
86 106 72 113 59 113 c 0
45 112 32 106 22 96 c 0
13 86 8 72 9 59 c 0
9 45 14 31 23 21 c 0
32 11 46 5 60 6 c 0
Z
-9 60 m 0
-9 77 -1 95 11 107 c 0
24 119 42 126 60 126 c 0
77 125 95 119 108 107 c 0
121 95 128 77 129 60 c 0
129 42 121 24 107 12 c 0
94 0 76 -6 59 -6 c 0
41 -5 24 1 11 13 c 0
-1 25 -8 42 -9 60 c 0
Z
60 36 m 0
65 36 70 39 74 43 c 0
78 47 79 53 80 59 c 0
80 64 78 70 74 75 c 0
72 77 70 79 67 81 c 0
64 82 61 83 59 83 c 0
53 82 47 79 44 75 c 0
40 70 38 64 39 59 c 0
39 53 41 47 44 43 c 0
48 38 54 35 60 36 c 0
Z
20 60 m 0
20 69 24 79 32 86 c 0
39 92 50 96 60 96 c 0
69 95 79 92 86 85 c 0
94 79 98 69 99 60 c 0
99 49 94 39 86 33 c 0
79 26 69 22 59 23 c 0
49 23 39 26 31 33 c 0
24 40 19 50 20 60 c 0
Z
Spiro
-16 717 v
25 680 v
3 211 v
43 717 v
85 680 v
63 211 v
103 717 v
145 680 v
123 211 v
60 6 c
110 59 c
59 113 c
9 59 c
-9 60 c
60 126 c
129 60 c
59 -6 c
60 36 c
80 59 c
59 83 c
39 59 c
20 60 c
60 96 c
99 60 c
59 23 c
0 0 z
EndSpiro
EndSplineSet
        EndChar
StartChar: "
Encoding: 34 34 0
Width: 376
InSpiro: 1
        Flags: H
        LayerCount: 2
        Back
        SplineSet
60 663 m 0
60 662 l 0
60 511 l 0
60 663 l 0
Z
61 663 m 0
62 662 l 0
62 511 l 0
61 663 l 0
Z
63 663 m 0
64 662 l 0
64 511 l 0
63 663 l 0
Z
209 663 m 0
210 662 l 0
210 511 l 0
209 663 l 0
Z
211 663 m 0
212 662 l 0
212 511 l 0
211 663 l 0
Z
213 663 m 0
214 662 l 0
214 511 l 0
213 663 l 0
Z
Spiro
60 663 v
60 662 v
60 511 v
61 663 v
62 662 v
62 511 v
63 663 v
64 662 v
64 511 v
209 663 v
210 662 v
210 511 v
211 663 v
212 662 v
212 511 v
213 663 v
214 662 v
214 511 v
0 0 z
EndSpiro
EndSplineSet
        Fore
        SplineSet
-16 717 m 0
25 680 l 0
3 481 l 0
-16 717 l 0
Z
43 717 m 0
85 680 l 0
63 481 l 0
43 717 l 0
Z
103 717 m 0
145 680 l 0
123 481 l 0
103 717 l 0
Z
133 717 m 0
175 680 l 0
153 481 l 0
133 717 l 0
Z
193 717 m 0
235 680 l 0
213 481 l 0
193 717 l 0
Z
253 717 m 0
295 680 l 0
273 481 l 0
253 717 l 0
Z
Spiro
-16 717 v
25 680 v
3 481 v
43 717 v
85 680 v
63 481 v
103 717 v
145 680 v
123 481 v
133 717 v
175 680 v
153 481 v
193 717 v
235 680 v
213 481 v
253 717 v
295 680 v
273 481 v
0 0 z
EndSpiro
EndSplineSet
        EndChar
StartChar: #
Encoding: 35 35 0
Width: 526
InSpiro: 1
        Flags: H
        LayerCount: 2
        Back
        SplineSet
60 459 m 0
60 460 l 0
363 460 l 0
60 459 l 0
Z
60 461 m 0
61 462 l 0
363 462 l 0
60 461 l 0
Z
60 463 m 0
61 464 l 0
363 464 l 0
60 463 l 0
Z
60 259 m 0
60 260 l 0
363 260 l 0
60 259 l 0
Z
60 261 m 0
61 262 l 0
363 262 l 0
60 261 l 0
Z
60 263 m 0
61 264 l 0
363 264 l 0
60 263 l 0
Z
284 663 m 0
285 662 l 0
285 61 l 0
284 663 l 0
Z
286 663 m 0
287 662 l 0
287 61 l 0
286 663 l 0
Z
288 663 m 0
289 662 l 0
289 61 l 0
288 663 l 0
Z
134 663 m 0
135 662 l 0
135 61 l 0
134 663 l 0
Z
136 663 m 0
137 662 l 0
137 61 l 0
136 663 l 0
Z
138 663 m 0
139 662 l 0
139 61 l 0
138 663 l 0
Z
Spiro
60 459 v
60 460 v
363 460 v
60 461 v
61 462 v
363 462 v
60 463 v
61 464 v
363 464 v
60 259 v
60 260 v
363 260 v
60 261 v
61 262 v
363 262 v
60 263 v
61 264 v
363 264 v
284 663 v
285 662 v
285 61 v
286 663 v
287 662 v
287 61 v
288 663 v
289 662 v
289 61 v
134 663 v
135 662 v
135 61 v
136 663 v
137 662 v
137 61 v
138 663 v
139 662 v
139 61 v
0 0 z
EndSpiro
EndSplineSet
        Fore
        SplineSet
0 381 m 0
37 420 l 0
391 400 l 0
0 381 l 0
Z
0 441 m 0
37 480 l 0
391 460 l 0
0 441 l 0
Z
0 501 m 0
37 540 l 0
391 520 l 0
0 501 l 0
Z
0 181 m 0
37 220 l 0
391 200 l 0
0 181 l 0
Z
0 241 m 0
37 280 l 0
391 260 l 0
0 241 l 0
Z
0 301 m 0
37 340 l 0
391 320 l 0
0 301 l 0
Z
208 717 m 0
250 680 l 0
228 31 l 0
208 717 l 0
Z
268 717 m 0
310 680 l 0
288 31 l 0
268 717 l 0
Z
328 717 m 0
370 680 l 0
348 31 l 0
328 717 l 0
Z
58 717 m 0
100 680 l 0
78 31 l 0
58 717 l 0
Z
118 717 m 0
160 680 l 0
138 31 l 0
118 717 l 0
Z
178 717 m 0
220 680 l 0
198 31 l 0
178 717 l 0
Z
Spiro
0 381 v
37 420 v
391 400 v
0 441 v
37 480 v
391 460 v
0 501 v
37 540 v
391 520 v
0 181 v
37 220 v
391 200 v
0 241 v
37 280 v
391 260 v
0 301 v
37 340 v
391 320 v
208 717 v
250 680 v
228 31 v
268 717 v
310 680 v
288 31 v
328 717 v
370 680 v
348 31 v
58 717 v
100 680 v
78 31 v
118 717 v
160 680 v
138 31 v
178 717 v
220 680 v
198 31 v
0 0 z
EndSpiro
EndSplineSet
        EndChar
StartChar: &
Encoding: 38 38 0
Width: 526
InSpiro: 1
        Flags: H
        LayerCount: 2
        Back
        SplineSet
364 62 m 0
363 62 l 0
212 212 l 0
171 252 130 294 103 345 c 0
75 395 60 453 62 511 c 0
62 552 72 595 99 627 c 0
112 643 130 655 150 662 c 0
169 668 191 668 211 660 c 0
224 654 235 645 244 634 c 0
253 622 260 609 263 595 c 0
271 568 268 538 260 511 c 0
242 453 202 405 160 362 c 0
138 340 116 318 97 294 c 0
78 269 63 241 60 211 c 0
55 178 64 144 83 117 c 0
101 90 129 70 161 60 c 0
200 46 245 50 282 68 c 0
320 87 349 121 363 161 c 0
349 121 320 87 282 68 c 0
244 49 199 46 160 60 c 0
128 70 101 91 82 118 c 0
64 145 55 179 60 212 c 0
63 242 78 270 97 295 c 0
115 319 137 341 159 363 c 0
201 406 241 454 259 512 c 0
267 539 269 568 262 595 c 0
258 609 252 622 243 633 c 0
234 644 223 653 210 659 c 0
190 666 169 667 149 660 c 0
129 654 112 641 99 625 c 0
72 594 63 551 63 510 c 0
62 452 77 395 105 345 c 0
132 295 172 253 213 213 c 0
364 62 l 0
Z
362 61 m 0
361 61 l 0
210 211 l 0
168 251 128 294 100 345 c 0
73 396 58 454 60 512 c 0
61 554 71 597 98 629 c 0
112 645 130 657 150 664 c 0
170 670 192 670 212 662 c 0
225 656 237 647 246 635 c 0
255 624 261 610 265 596 c 0
273 568 270 538 262 511 c 0
244 452 204 404 162 361 c 0
140 339 118 318 99 293 c 0
80 269 65 241 62 211 c 0
57 178 66 145 84 118 c 0
103 91 131 72 162 62 c 0
201 49 245 52 282 71 c 0
318 89 347 122 361 162 c 0
348 122 318 88 281 70 c 0
244 51 200 48 161 61 c 0
129 71 101 91 83 118 c 0
65 145 56 179 61 212 c 0
65 242 79 270 98 294 c 0
117 318 139 340 161 362 c 0
203 405 243 453 261 512 c 0
269 539 271 569 264 596 c 0
260 610 253 623 244 635 c 0
235 646 224 655 211 661 c 0
191 669 169 669 149 663 c 0
129 656 112 643 98 628 c 0
71 596 61 552 61 511 c 0
59 453 74 395 102 345 c 0
130 295 170 252 211 212 c 0
362 61 l 0
Z
361 60 m 0
360 60 l 0
209 209 l 0
167 249 126 292 99 343 c 0
71 395 57 453 60 512 c 0
61 553 71 597 99 629 c 0
112 645 130 657 150 664 c 0
170 670 192 670 212 663 c 0
225 657 237 648 247 636 c 0
256 625 263 611 267 597 c 0
275 569 272 538 264 510 c 0
246 451 205 402 163 359 c 0
141 337 119 316 100 292 c 0
82 268 67 240 64 210 c 0
59 178 68 145 86 119 c 0
104 92 131 73 162 63 c 0
200 50 244 53 281 71 c 0
318 89 347 123 360 162 c 0
347 122 318 89 281 70 c 0
244 51 200 48 161 62 c 0
130 72 103 92 85 119 c 0
67 145 58 179 63 211 c 0
66 241 81 268 100 293 c 0
118 317 140 338 162 360 c 0
204 403 245 452 263 511 c 0
271 539 273 569 265 597 c 0
261 611 255 624 245 636 c 0
236 647 224 656 211 662 c 0
191 669 169 669 149 663 c 0
129 656 111 644 98 628 c 0
71 596 61 552 60 511 c 0
58 453 73 395 100 344 c 0
128 293 168 250 210 210 c 0
361 60 l 0
Z
Spiro
364 62 v
363 62 v
212 212 ]
62 511 c
211 660 c
260 511 c
160 362 c
60 211 c
161 60 c
363 161 v
160 60 c
60 212 c
159 363 c
259 512 c
210 659 c
63 510 c
213 213 [
362 61 v
361 61 v
210 211 ]
60 512 c
212 662 c
262 511 c
162 361 c
62 211 c
162 62 c
361 162 v
161 61 c
61 212 c
161 362 c
261 512 c
211 661 c
61 511 c
211 212 [
361 60 v
360 60 v
209 209 ]
60 512 c
212 663 c
264 510 c
163 359 c
64 210 c
162 63 c
360 162 v
161 62 c
63 211 c
162 360 c
263 511 c
211 662 c
60 511 c
210 210 [
0 0 z
EndSpiro
EndSplineSet
        Fore
        SplineSet
456 74 m 0
400 73 l 0
233 237 l 0
195 273 159 311 134 356 c 0
108 401 94 453 93 505 c 0
92 520 93 536 96 551 c 0
99 567 105 582 114 594 c 0
123 607 136 617 151 623 c 0
166 628 182 627 197 621 c 0
205 616 212 610 218 602 c 0
223 594 227 585 229 576 c 0
233 557 231 538 226 520 c 0
210 468 172 426 135 387 c 0
110 361 86 336 66 308 c 0
45 279 29 247 25 213 c 0
19 172 29 129 52 95 c 0
75 61 109 35 148 21 c 0
202 0 265 5 317 32 c 0
368 59 407 109 422 166 c 0
411 102 373 44 319 9 c 0
265 -24 196 -34 135 -17 c 0
85 -2 40 28 12 72 c 0
-16 115 -28 169 -19 220 c 0
-12 258 5 293 27 324 c 0
50 356 76 385 102 414 c 0
133 450 165 488 183 533 c 0
186 542 189 551 189 561 c 0
188 566 187 571 185 575 c 0
183 579 180 583 176 586 c 0
172 588 167 589 162 589 c 0
158 589 153 587 149 585 c 0
141 580 136 572 133 564 c 0
130 555 130 545 131 536 c 0
133 527 135 518 138 510 c 0
150 464 160 418 181 376 c 0
202 334 233 299 266 266 c 0
456 74 l 0
Z
413 32 m 0
357 31 l 0
190 195 l 0
146 237 104 281 75 335 c 0
46 388 30 449 34 510 c 0
36 559 51 609 85 644 c 0
102 662 124 675 147 682 c 0
171 688 197 687 220 678 c 0
251 664 274 636 284 603 c 0
294 571 293 536 284 504 c 0
266 441 224 390 178 345 c 0
157 325 136 305 118 283 c 0
101 261 87 235 84 207 c 0
80 179 88 151 103 128 c 0
118 105 141 88 167 78 c 0
206 62 253 64 291 85 c 0
329 105 357 143 366 186 c 0
361 136 333 90 293 62 c 0
252 35 199 27 152 41 c 0
116 51 84 74 63 105 c 0
42 136 33 175 39 212 c 0
43 244 59 274 79 300 c 0
98 327 122 350 145 374 c 0
184 415 222 460 239 515 c 0
246 537 249 562 243 586 c 0
241 597 236 609 228 618 c 0
221 628 212 636 201 641 c 0
184 648 165 648 148 642 c 0
131 636 117 624 106 610 c 0
84 582 78 544 79 509 c 0
79 454 94 399 120 351 c 0
146 303 184 262 223 224 c 0
413 32 l 0
Z
371 -10 m 0
315 -11 l 0
148 152 l 0
98 200 50 250 17 311 c 0
-14 373 -29 443 -24 512 c 0
-18 578 6 646 55 691 c 0
80 714 110 731 143 739 c 0
175 747 210 745 242 733 c 0
287 714 321 675 338 629 c 0
355 583 354 532 342 486 c 0
322 413 276 350 219 303 c 0
202 288 184 275 169 259 c 0
162 251 155 241 151 231 c 0
146 221 143 211 144 200 c 0
144 186 148 172 156 161 c 0
163 150 174 140 187 135 c 0
211 122 242 124 266 138 c 0
290 152 306 178 308 206 c 0
310 171 294 136 267 115 c 0
240 94 202 87 170 98 c 0
148 104 128 119 116 138 c 0
103 156 96 180 99 203 c 0
101 229 114 254 131 275 c 0
148 295 168 313 188 332 c 0
235 378 278 432 297 497 c 0
307 534 310 574 298 611 c 0
292 629 283 647 271 661 c 0
258 676 242 688 225 696 c 0
199 706 171 707 145 700 c 0
118 692 95 677 76 658 c 0
38 618 22 563 20 509 c 0
17 446 33 382 63 327 c 0
92 272 136 225 181 181 c 0
371 -10 l 0
Z
Spiro
456 74 v
400 73 v
233 237 ]
93 505 c
197 621 c
226 520 c
135 387 c
25 213 c
148 21 c
422 166 v
135 -17 c
-19 220 c
102 414 c
183 533 c
176 586 c
138 510 c
266 266 [
413 32 v
357 31 v
190 195 ]
34 510 c
220 678 c
284 504 c
178 345 c
84 207 c
167 78 c
366 186 v
152 41 c
39 212 c
145 374 c
239 515 c
201 641 c
79 509 c
223 224 [
371 -10 v
315 -11 v
148 152 ]
-24 512 c
242 733 c
342 486 c
219 303 c
144 200 c
187 135 c
308 206 v
170 98 c
99 203 c
188 332 c
297 497 c
225 696 c
20 509 c
181 181 [
0 0 z
EndSpiro
EndSplineSet
        EndChar
StartChar: ,
Encoding: 44 44 0
Width: 376
InSpiro: 1
        Flags: H
        LayerCount: 2
        Back
        SplineSet
210 64 m 0
211 62 l 0
179 34 l 0
210 64 l 0
Z
212 63 m 0
213 62 l 0
181 32 l 0
212 63 l 0
Z
213 61 m 0
214 60 l 0
182 31 l 0
213 61 l 0
Z
Spiro
210 64 v
211 62 v
179 34 v
212 63 v
213 62 v
181 32 v
213 61 v
214 60 v
182 31 v
0 0 z
EndSpiro
EndSplineSet
        Fore
        SplineSet
197 155 m 0
200 102 l 0
96 31 l 0
197 155 l 0
Z
240 113 m 0
243 60 l 0
139 -10 l 0
240 113 l 0
Z
283 70 m 0
285 16 l 0
181 -51 l 0
283 70 l 0
Z
Spiro
197 155 v
200 102 v
96 31 v
240 113 v
243 60 v
139 -10 v
283 70 v
285 16 v
181 -51 v
0 0 z
EndSpiro
EndSplineSet
        EndChar
StartChar: /
Encoding: 47 47 0
Width: 526
InSpiro: 1
        Flags: H
        LayerCount: 2
        Back
        SplineSet
360 693 m 0
360 692 l 0
60 33 l 0
360 693 l 0
Z
362 693 m 0
362 692 l 0
61 32 l 0
362 693 l 0
Z
363 692 m 0
363 691 l 0
62 32 l 0
363 692 l 0
Z
Spiro
360 693 v
360 692 v
60 33 v
362 693 v
362 692 v
61 32 v
363 692 v
363 691 v
62 32 v
0 0 z
EndSpiro
EndSplineSet
        Fore
        SplineSet
312 802 m 0
335 753 l 0
-5 -3 l 0
312 802 l 0
Z
367 779 m 0
390 730 l 0
49 -26 l 0
367 779 l 0
Z
423 755 m 0
446 706 l 0
105 -49 l 0
423 755 l 0
Z
Spiro
312 802 v
335 753 v
-5 -3 v
367 779 v
390 730 v
49 -26 v
423 755 v
446 706 v
105 -49 v
0 0 z
EndSpiro
EndSplineSet
        EndChar
StartChar: 1
Encoding: 49 49 0
Width: 346
InSpiro: 1
        Flags: H
        LayerCount: 2
        Back
        SplineSet
62 539 m 0
62 540 l 0
121 659 l 0
120 659 l 0
120 61 l 0
119 660 l 0
119 660 l 0
123 660 l 0
123 660 l 0
62 539 l 0
Z
60 540 m 0
60 541 l 0
120 662 l 0
120 662 l 0
122 662 l 0
122 662 l 0
122 61 l 0
121 661 l 0
121 661 l 0
60 540 l 0
Z
60 540 m 0
60 541 l 0
118 664 l 0
118 664 l 0
124 664 l 0
124 664 l 0
124 61 l 0
123 663 l 0
119 663 l 0
60 540 l 0
Z
Spiro
62 539 v
62 540 v
121 659 v
120 659 v
120 61 v
119 660 v
119 660 v
123 660 v
123 660 v
60 540 v
60 541 v
120 662 v
120 662 v
122 662 v
122 662 v
122 61 v
121 661 v
121 661 v
60 540 v
60 541 v
118 664 v
118 664 v
124 664 v
124 664 v
124 61 v
123 663 v
119 663 v
0 0 z
EndSpiro
EndSplineSet
        Fore
        SplineSet
106 437 m 0
73 481 l 0
99 620 l 0
99 620 l 0
144 620 l 0
144 620 l 0
123 31 l 0
119 600 l 0
123 600 l 0
106 437 l 0
Z
27 487 m 0
25 540 l 0
204 680 l 0
159 680 l 0
204 680 l 0
204 680 l 0
183 31 l 0
179 660 l 0
183 660 l 0
27 487 l 0
Z
-26 536 m 0
-15 588 l 0
264 740 l 0
219 740 l 0
264 740 l 0
264 740 l 0
243 31 l 0
239 720 l 0
242 720 l 0
-26 536 l 0
Z
Spiro
106 437 v
73 481 v
99 620 v
99 620 v
144 620 v
144 620 v
123 31 v
119 600 v
123 600 v
27 487 v
25 540 v
204 680 v
159 680 v
204 680 v
204 680 v
183 31 v
179 660 v
183 660 v
-26 536 v
-15 588 v
264 740 v
219 740 v
264 740 v
264 740 v
243 31 v
239 720 v
242 720 v
0 0 z
EndSpiro
EndSplineSet
        EndChar
StartChar: 2
Encoding: 50 50 0
Width: 526
InSpiro: 1
        Flags: H
        LayerCount: 2
        Back
        SplineSet
62 559 m 0
62 560 l 0
72 590 93 616 119 634 c 0
146 652 178 661 211 660 c 0
249 658 286 640 313 613 c 0
340 586 356 549 360 511 c 0
364 456 343 402 313 355 c 0
283 309 246 268 210 228 c 0
60 60 l 0
363 60 l 0
58 60 l 0
58 60 l 0
209 229 l 0
245 269 282 310 312 356 c 0
341 401 363 455 359 510 c 0
355 548 339 585 312 612 c 0
285 640 248 657 210 659 c 0
178 660 145 651 119 633 c 0
92 615 72 589 62 559 c 0
Z
60 560 m 0
60 561 l 0
70 591 91 618 119 636 c 0
146 654 179 663 212 662 c 0
250 659 287 642 314 614 c 0
341 587 358 550 362 512 c 0
367 456 346 402 316 355 c 0
286 308 249 268 212 227 c 0
63 62 l 0
363 62 l 0
61 61 l 0
61 61 l 0
211 228 l 0
247 268 285 309 314 355 c 0
344 402 365 456 361 511 c 0
357 549 340 586 313 614 c 0
286 641 249 658 211 661 c 0
178 662 145 653 118 635 c 0
91 617 70 590 60 560 c 0
Z
60 560 m 0
60 561 l 0
70 591 91 619 119 637 c 0
146 655 179 664 212 663 c 0
250 661 288 643 316 615 c 0
343 588 360 550 364 512 c 0
369 456 347 401 318 354 c 0
288 307 250 266 213 225 c 0
67 63 l 0
363 64 l 0
65 62 l 0
65 62 l 0
212 226 l 0
248 267 286 308 316 354 c 0
346 401 367 455 363 511 c 0
359 549 342 587 315 615 c 0
287 642 249 660 211 662 c 0
178 663 145 654 118 636 c 0
91 617 70 590 60 560 c 0
Z
Spiro
62 559 v
62 560 v
211 660 c
360 511 c
210 228 [
60 60 v
363 60 v
58 60 v
58 60 v
209 229 ]
359 510 c
210 659 c
60 560 v
60 561 v
212 662 c
362 512 c
212 227 [
63 62 v
363 62 v
61 61 v
61 61 v
211 228 ]
361 511 c
211 661 c
60 560 v
60 561 v
212 663 c
364 512 c
213 225 [
67 63 v
363 64 v
65 62 v
65 62 v
212 226 ]
363 511 c
211 662 c
0 0 z
EndSpiro
EndSplineSet
        Fore
        SplineSet
110 479 m 0
84 527 l 0
90 553 106 578 128 595 c 0
151 611 179 620 207 619 c 0
236 617 265 604 286 584 c 0
307 563 321 535 325 506 c 0
327 481 323 455 315 432 c 0
306 408 294 387 280 366 c 0
251 325 217 289 184 252 c 0
-24 19 l 0
391 0 l 0
-94 -20 l 0
-94 -20 l 0
149 279 l 0
176 313 206 345 233 380 c 0
247 398 259 416 268 436 c 0
277 456 282 479 280 501 c 0
277 520 268 539 255 553 c 0
241 567 223 577 204 580 c 0
177 583 149 573 130 553 c 0
112 534 104 505 110 479 c 0
Z
54 500 m 0
28 548 l 0
38 586 63 622 96 645 c 0
129 669 170 681 211 679 c 0
254 676 297 657 328 627 c 0
359 596 379 554 384 511 c 0
389 453 368 395 337 346 c 0
307 297 267 254 229 212 c 0
109 80 l 0
391 60 l 0
39 40 l 0
39 40 l 0
194 239 l 0
225 280 259 320 288 363 c 0
303 384 316 407 325 431 c 0
335 455 340 482 339 508 c 0
336 541 321 574 298 598 c 0
274 622 241 637 208 640 c 0
169 643 129 629 100 603 c 0
71 577 54 538 54 500 c 0
Z
-3 520 m 0
-28 568 l 0
-12 618 20 663 63 694 c 0
107 724 160 740 214 738 c 0
272 735 328 710 370 670 c 0
412 629 438 573 444 516 c 0
449 450 428 384 395 326 c 0
362 269 317 220 273 171 c 0
244 139 l 0
391 120 l 0
174 99 l 0
174 99 l 0
238 198 l 0
270 248 305 296 337 347 c 0
353 372 368 398 380 425 c 0
391 453 399 483 399 513 c 0
398 561 377 609 342 643 c 0
307 677 259 697 211 699 c 0
160 700 108 683 69 650 c 0
30 617 4 570 -3 520 c 0
Z
Spiro
110 479 v
84 527 v
207 619 c
325 506 c
184 252 [
-24 19 v
391 0 v
-94 -20 v
-94 -20 v
149 279 ]
280 501 c
204 580 c
54 500 v
28 548 v
211 679 c
384 511 c
229 212 [
109 80 v
391 60 v
39 40 v
39 40 v
194 239 ]
339 508 c
208 640 c
-3 520 v
-28 568 v
214 738 c
444 516 c
273 171 [
244 139 v
391 120 v
174 99 v
174 99 v
238 198 ]
399 513 c
211 699 c
0 0 z
EndSpiro
EndSplineSet
        EndChar
StartChar: 3
Encoding: 51 51 0
Width: 526
InSpiro: 1
        Flags: H
        LayerCount: 2
        Back
        SplineSet
62 559 m 0
62 560 l 0
70 591 90 620 117 638 c 0
144 656 178 664 211 660 c 0
247 654 281 634 306 607 c 0
331 579 348 546 360 511 c 0
367 488 372 465 371 441 c 0
369 418 360 394 344 377 c 0
328 360 305 351 281 349 c 0
258 348 235 355 213 363 c 0
210 364 l 0
213 364 l 0
233 363 253 364 273 369 c 0
292 374 311 383 326 397 c 0
340 412 350 430 356 449 c 0
361 469 361 489 359 510 c 0
353 547 337 583 310 611 c 0
284 638 247 656 210 659 c 0
178 661 145 652 118 634 c 0
92 616 71 589 62 559 c 0
Z
60 560 m 0
60 561 l 0
68 593 88 622 116 640 c 0
144 659 179 666 212 662 c 0
248 656 282 636 307 608 c 0
332 581 350 547 362 512 c 0
369 489 375 465 373 441 c 0
372 417 363 393 347 376 c 0
330 359 307 349 283 347 c 0
259 346 235 353 213 361 c 0
210 362 l 0
213 362 l 0
233 361 254 362 274 367 c 0
294 372 313 382 328 396 c 0
342 411 353 429 358 449 c 0
363 469 363 490 361 511 c 0
355 548 338 585 312 612 c 0
285 640 249 658 211 661 c 0
178 663 145 654 118 636 c 0
90 618 70 591 60 560 c 0
Z
60 560 m 0
60 561 l 0
68 593 88 622 116 640 c 0
144 659 178 667 212 663 c 0
249 657 283 637 308 609 c 0
334 581 351 547 364 512 c 0
371 488 377 464 376 440 c 0
374 416 365 392 348 374 c 0
332 357 308 346 284 345 c 0
259 344 236 351 213 359 c 0
210 360 l 0
213 360 l 0
233 359 255 360 275 365 c 0
295 370 314 380 329 395 c 0
344 409 355 428 360 448 c 0
365 469 366 490 363 511 c 0
357 549 340 585 313 613 c 0
286 641 249 659 211 662 c 0
178 664 145 655 117 636 c 0
90 618 70 591 60 560 c 0
Z
210 359 m 0
211 360 l 0
213 360 l 0
233 360 254 359 274 354 c 0
294 349 313 339 327 325 c 0
342 310 352 292 357 272 c 0
362 252 363 231 360 211 c 0
354 173 337 137 311 110 c 0
284 82 248 64 211 62 c 0
178 59 145 68 119 86 c 0
92 104 71 131 62 162 c 0
72 131 92 104 119 87 c 0
145 69 178 60 210 63 c 0
247 65 284 83 310 110 c 0
336 138 353 174 359 212 c 0
361 232 361 252 356 272 c 0
351 292 341 310 326 324 c 0
311 338 293 348 273 353 c 0
253 358 233 359 213 359 c 0
210 359 l 0
Z
210 361 m 0
211 362 l 0
213 362 l 0
233 362 254 361 275 356 c 0
295 351 314 341 329 326 c 0
344 312 354 293 359 273 c 0
365 252 365 231 362 211 c 0
356 173 339 137 312 109 c 0
286 82 250 64 212 61 c 0
179 58 145 67 118 85 c 0
91 103 70 130 60 162 c 0
70 131 91 104 118 86 c 0
145 68 178 59 211 62 c 0
249 64 285 83 312 110 c 0
338 137 355 174 361 212 c 0
363 232 363 253 358 273 c 0
353 293 342 311 328 326 c 0
313 340 294 350 274 355 c 0
254 360 233 361 213 361 c 0
210 361 l 0
Z
210 363 m 0
211 364 l 0
213 364 l 0
234 364 255 363 276 358 c 0
296 353 316 342 331 327 c 0
346 313 357 293 362 273 c 0
367 252 367 230 364 210 c 0
357 172 340 135 313 108 c 0
286 80 250 62 212 60 c 0
179 57 145 66 118 84 c 0
91 102 70 129 60 161 c 0
70 130 91 102 118 84 c 0
145 66 178 57 211 60 c 0
249 62 286 80 313 108 c 0
340 136 357 172 363 211 c 0
366 231 366 253 360 273 c 0
355 293 345 312 330 327 c 0
315 342 295 352 275 357 c 0
255 362 233 363 213 363 c 0
210 363 l 0
Z
Spiro
62 559 v
62 560 v
211 660 c
360 511 c
213 363 [
210 364 v
213 364 ]
359 510 c
210 659 c
60 560 v
60 561 v
212 662 c
362 512 c
213 361 [
210 362 v
213 362 ]
361 511 c
211 661 c
60 560 v
60 561 v
212 663 c
364 512 c
213 359 [
210 360 v
213 360 ]
363 511 c
211 662 c
210 359 v
211 360 v
213 360 ]
360 211 c
211 62 c
62 162 v
210 63 c
359 212 c
213 359 [
210 361 v
211 362 v
213 362 ]
362 211 c
212 61 c
60 162 v
211 62 c
361 212 c
213 361 [
210 363 v
211 364 v
213 364 ]
364 210 c
212 60 c
60 161 v
211 60 c
363 211 c
213 363 [
0 0 z
EndSpiro
EndSplineSet
        Fore
        SplineSet
108 481 m 0
85 530 l 0
89 557 104 582 126 599 c 0
148 615 177 622 205 619 c 0
234 614 260 598 280 576 c 0
300 555 314 528 325 501 c 0
331 483 336 464 336 446 c 0
335 427 328 408 314 395 c 0
307 388 299 384 290 381 c 0
281 378 272 377 262 378 c 0
244 380 227 390 211 400 c 0
178 420 l 0
211 440 l 0
224 448 237 455 250 464 c 0
262 474 274 485 280 500 c 0
283 510 283 521 280 532 c 0
278 542 272 552 264 559 c 0
248 574 225 581 204 580 c 0
178 578 154 567 136 549 c 0
118 531 108 506 108 481 c 0
Z
55 500 m 0
28 547 l 0
33 588 57 627 91 652 c 0
125 676 169 686 211 679 c 0
252 671 288 647 317 617 c 0
345 586 366 549 384 512 c 0
397 483 408 454 410 422 c 0
411 407 409 391 404 376 c 0
399 361 392 348 381 336 c 0
370 325 357 316 342 311 c 0
328 305 312 304 296 305 c 0
265 308 237 323 211 340 c 0
178 360 l 0
211 380 l 0
237 396 264 411 288 431 c 0
311 451 332 476 339 507 c 0
342 524 341 543 335 560 c 0
329 576 319 592 306 604 c 0
280 629 243 641 208 640 c 0
170 638 133 623 105 598 c 0
77 572 59 537 55 500 c 0
Z
0 518 m 0
-28 565 l 0
-19 619 11 670 56 703 c 0
101 735 160 748 215 738 c 0
268 727 316 696 354 657 c 0
391 617 419 569 444 521 c 0
463 482 480 441 484 398 c 0
486 376 484 354 478 333 c 0
472 313 461 293 447 277 c 0
432 261 414 248 394 241 c 0
373 233 351 230 330 232 c 0
287 235 247 257 211 280 c 0
178 300 l 0
211 320 l 0
250 344 291 367 326 398 c 0
343 413 359 430 372 449 c 0
385 469 395 491 399 514 c 0
403 538 400 564 391 587 c 0
382 611 368 632 349 649 c 0
313 683 262 700 212 699 c 0
161 697 112 678 74 645 c 0
35 613 9 567 0 518 c 0
Z
150 281 m 0
187 320 l 0
211 320 l 0
225 320 240 319 255 316 c 0
269 313 283 306 294 296 c 0
305 287 314 274 319 260 c 0
324 246 325 231 325 217 c 0
323 185 310 155 288 133 c 0
266 111 236 98 205 99 c 0
177 99 151 111 132 130 c 0
112 150 101 176 101 204 c 0
107 182 121 163 140 152 c 0
159 140 182 134 204 138 c 0
223 140 242 149 256 164 c 0
270 178 279 198 280 218 c 0
280 226 279 235 276 244 c 0
273 252 267 260 261 265 c 0
254 271 246 275 237 277 c 0
228 279 219 279 211 280 c 0
150 281 l 0
Z
150 341 m 0
187 380 l 0
211 380 l 0
235 380 259 379 282 373 c 0
305 367 327 356 345 339 c 0
362 323 374 301 380 278 c 0
387 255 387 230 384 207 c 0
377 163 358 122 327 91 c 0
296 61 254 41 211 40 c 0
170 38 129 53 99 80 c 0
69 107 49 145 46 186 c 0
55 151 77 121 106 102 c 0
136 82 173 74 208 79 c 0
241 83 272 99 295 123 c 0
319 147 334 178 339 212 c 0
341 229 340 247 336 264 c 0
331 281 322 297 309 309 c 0
296 321 280 330 263 334 c 0
246 339 228 339 211 340 c 0
150 341 l 0
Z
150 401 m 0
187 440 l 0
211 440 l 0
244 440 278 439 310 431 c 0
342 422 372 406 396 382 c 0
419 359 436 328 443 296 c 0
451 263 450 229 444 197 c 0
433 141 406 88 366 48 c 0
326 9 271 -16 215 -19 c 0
161 -21 107 -3 66 30 c 0
25 64 -1 114 -9 167 c 0
3 120 33 78 73 51 c 0
114 24 164 12 212 19 c 0
258 24 302 47 335 80 c 0
368 113 390 157 399 204 c 0
403 230 404 257 397 283 c 0
391 309 378 333 359 352 c 0
340 371 316 384 290 391 c 0
264 398 237 399 211 400 c 0
150 401 l 0
Z
Spiro
108 481 v
85 530 v
205 619 c
325 501 c
211 400 [
178 420 v
211 440 ]
280 500 c
204 580 c
55 500 v
28 547 v
211 679 c
384 512 c
211 340 [
178 360 v
211 380 ]
339 507 c
208 640 c
0 518 v
-28 565 v
215 738 c
444 521 c
211 280 [
178 300 v
211 320 ]
399 514 c
212 699 c
150 281 v
187 320 v
211 320 ]
325 217 c
205 99 c
101 204 v
204 138 c
280 218 c
211 280 [
150 341 v
187 380 v
211 380 ]
384 207 c
211 40 c
46 186 v
208 79 c
339 212 c
211 340 [
150 401 v
187 440 v
211 440 ]
444 197 c
215 -19 c
-9 167 v
212 19 c
399 204 c
211 400 [
0 0 z
EndSpiro
EndSplineSet
        EndChar
StartChar: 4
Encoding: 52 52 0
Width: 526
InSpiro: 1
        Flags: H
        LayerCount: 2
        Back
        SplineSet
303 60 m 0
302 60 l 0
302 667 l 0
60 210 l 0
363 210 l 0
59 209 l 0
59 209 l 0
302 670 l 0
303 670 l 0
303 60 l 0
Z
301 60 m 0
300 61 l 0
300 659 l 0
63 212 l 0
363 212 l 0
61 211 l 0
61 211 l 0
300 662 l 0
301 662 l 0
301 60 l 0
Z
299 60 m 0
298 61 l 0
298 651 l 0
66 214 l 0
363 214 l 0
64 213 l 0
64 213 l 0
298 654 l 0
299 654 l 0
299 60 l 0
Z
Spiro
303 60 v
302 60 v
302 667 v
60 210 v
363 210 v
59 209 v
59 209 v
302 670 v
303 670 v
301 60 v
300 61 v
300 659 v
63 212 v
363 212 v
61 211 v
61 211 v
300 662 v
301 662 v
299 60 v
298 61 v
298 651 v
66 214 v
363 214 v
64 213 v
64 213 v
298 654 v
299 654 v
0 0 z
EndSpiro
EndSplineSet
        Fore
        SplineSet
376 1 m 0
334 39 l 0
338 818 l 0
-1 170 l 0
391 150 l 0
-59 130 l 0
-59 130 l 0
336 919 l 0
381 919 l 0
376 1 l 0
Z
316 2 m 0
274 40 l 0
278 578 l 0
97 230 l 0
391 210 l 0
39 190 l 0
39 190 l 0
276 680 l 0
321 680 l 0
316 2 l 0
Z
256 2 m 0
214 40 l 0
217 336 l 0
197 290 l 0
391 270 l 0
139 250 l 0
139 250 l 0
216 440 l 0
261 440 l 0
256 2 l 0
Z
Spiro
376 1 v
334 39 v
338 818 v
-1 170 v
391 150 v
-59 130 v
-59 130 v
336 919 v
381 919 v
316 2 v
274 40 v
278 578 v
97 230 v
391 210 v
39 190 v
39 190 v
276 680 v
321 680 v
256 2 v
214 40 v
217 336 v
197 290 v
391 270 v
139 250 v
139 250 v
216 440 v
261 440 v
0 0 z
EndSpiro
EndSplineSet
        EndChar
StartChar: 6
Encoding: 54 54 0
Width: 526
InSpiro: 1
        Flags: H
        LayerCount: 2
        Back
        SplineSet
364 560 m 0
362 561 l 0
354 593 334 623 306 641 c 0
279 660 243 667 211 662 c 0
180 656 153 640 131 618 c 0
110 597 94 570 84 541 c 0
63 484 62 421 60 361 c 0
57 298 54 233 75 174 c 0
86 144 102 116 126 95 c 0
149 74 179 60 211 60 c 0
234 59 258 65 278 77 c 0
298 89 315 106 328 126 c 0
355 165 363 213 362 261 c 0
360 306 348 352 322 390 c 0
296 427 256 456 211 462 c 0
178 466 144 458 116 439 c 0
89 421 68 392 60 361 c 0
68 393 89 422 116 440 c 0
144 459 178 467 212 463 c 0
257 457 297 428 323 391 c 0
349 353 361 307 363 262 c 0
364 214 355 165 329 125 c 0
316 106 298 89 278 77 c 0
257 65 233 59 210 60 c 0
178 61 148 75 125 96 c 0
102 117 85 145 75 175 c 0
54 234 57 299 60 362 c 0
62 422 63 484 84 542 c 0
94 570 110 597 131 619 c 0
152 641 180 657 210 663 c 0
243 669 279 662 308 643 c 0
336 624 357 593 364 560 c 0
Z
362 560 m 0
360 561 l 0
353 593 333 622 306 640 c 0
278 659 244 666 212 661 c 0
182 655 154 639 132 618 c 0
111 596 95 569 85 541 c 0
64 484 63 421 62 361 c 0
59 298 56 234 77 175 c 0
87 145 104 118 127 97 c 0
150 76 180 62 212 62 c 0
235 61 258 68 278 79 c 0
298 91 315 108 327 127 c 0
353 166 361 214 360 261 c 0
358 306 346 352 320 389 c 0
295 426 255 455 210 461 c 0
177 465 143 456 116 438 c 0
89 420 69 392 61 361 c 0
69 392 89 421 117 439 c 0
144 458 178 466 211 462 c 0
255 456 296 427 321 390 c 0
347 352 359 307 361 262 c 0
362 215 354 166 328 127 c 0
315 107 298 90 278 78 c 0
257 66 234 60 211 61 c 0
179 61 149 75 126 96 c 0
102 118 86 145 76 175 c 0
55 234 58 299 61 362 c 0
63 422 64 484 85 541 c 0
95 570 110 597 132 618 c 0
153 640 181 656 211 662 c 0
244 668 279 660 307 641 c 0
335 622 355 592 362 560 c 0
Z
360 559 m 0
358 560 l 0
351 591 331 620 304 638 c 0
278 657 244 664 212 659 c 0
182 653 154 637 133 616 c 0
112 594 96 567 86 539 c 0
66 482 65 420 64 360 c 0
62 298 58 234 78 175 c 0
88 146 105 118 128 98 c 0
151 77 181 63 212 63 c 0
234 62 257 69 277 80 c 0
297 92 313 109 326 128 c 0
351 166 359 214 358 260 c 0
356 304 344 350 319 387 c 0
307 406 291 422 272 435 c 0
253 447 232 456 210 459 c 0
178 463 144 455 117 437 c 0
91 419 71 391 63 360 c 0
71 391 91 419 118 437 c 0
145 456 178 464 211 460 c 0
255 454 295 425 320 388 c 0
345 351 357 305 359 261 c 0
360 214 352 166 326 127 c 0
314 108 297 91 277 79 c 0
257 67 234 61 211 62 c 0
179 62 149 76 126 97 c 0
103 118 87 146 77 175 c 0
57 234 60 298 63 361 c 0
65 421 65 483 86 540 c 0
96 568 111 595 132 616 c 0
153 638 181 654 211 660 c 0
243 665 278 658 306 639 c 0
333 621 353 591 360 559 c 0
Z
Spiro
364 560 v
362 561 v
211 662 c
60 361 c
211 60 c
362 261 c
211 462 c
60 361 v
212 463 c
363 262 c
210 60 c
60 362 c
210 663 c
362 560 v
360 561 v
212 661 c
62 361 c
212 62 c
360 261 c
210 461 c
61 361 v
211 462 c
361 262 c
211 61 c
61 362 c
211 662 c
360 559 v
358 560 v
212 659 c
64 360 c
212 63 c
358 260 c
210 459 c
63 360 v
211 460 c
359 261 c
211 62 c
63 361 c
211 660 c
0 0 z
EndSpiro
EndSplineSet
        Fore
        SplineSet
443 518 m 0
396 549 l 0
393 595 370 640 334 668 c 0
297 697 248 708 203 699 c 0
169 691 138 673 113 649 c 0
88 625 70 595 57 564 c 0
31 500 27 429 25 361 c 0
22 288 22 214 49 147 c 0
62 113 83 82 110 59 c 0
138 35 172 20 209 19 c 0
237 17 266 25 291 39 c 0
316 53 337 73 353 97 c 0
385 144 396 203 393 261 c 0
389 314 374 367 343 411 c 0
312 455 265 489 213 499 c 0
164 508 113 496 73 468 c 0
33 440 5 395 -2 347 c 0
0 401 26 454 67 490 c 0
109 525 165 543 220 538 c 0
283 531 342 493 379 442 c 0
417 390 436 325 438 262 c 0
440 193 423 123 382 68 c 0
361 41 335 18 305 2 c 0
274 -13 240 -21 206 -19 c 0
165 -16 125 0 93 25 c 0
61 50 36 84 18 121 c 0
-16 195 -21 280 -19 362 c 0
-16 439 -7 518 25 588 c 0
41 624 64 656 92 682 c 0
121 709 156 729 194 738 c 0
257 752 326 735 375 692 c 0
424 649 450 582 443 518 c 0
Z
388 507 m 0
339 536 l 0
337 566 323 596 299 616 c 0
275 635 243 644 213 640 c 0
185 635 159 620 140 599 c 0
121 579 108 553 100 526 c 0
83 472 86 415 84 359 c 0
81 301 74 242 90 187 c 0
98 159 111 132 132 112 c 0
153 92 181 79 210 79 c 0
230 78 250 85 268 96 c 0
285 107 299 122 309 140 c 0
330 175 336 218 334 259 c 0
331 298 321 338 300 371 c 0
278 405 244 431 206 440 c 0
171 447 134 439 106 419 c 0
77 398 58 366 54 332 c 0
53 372 70 412 100 440 c 0
129 467 170 482 211 479 c 0
236 477 260 468 282 455 c 0
303 441 321 423 336 402 c 0
364 361 377 310 379 260 c 0
380 208 369 154 340 111 c 0
325 90 306 71 283 59 c 0
260 46 234 39 209 40 c 0
175 41 142 55 116 77 c 0
91 99 72 128 60 159 c 0
35 222 36 292 39 360 c 0
41 424 45 490 69 551 c 0
81 581 99 609 122 632 c 0
145 654 174 672 206 679 c 0
253 689 306 674 342 641 c 0
378 607 395 555 388 507 c 0
Z
335 498 m 0
283 521 l 0
282 536 275 551 264 562 c 0
252 573 237 579 222 580 c 0
210 580 199 577 189 572 c 0
180 566 171 559 164 550 c 0
150 533 143 511 140 489 c 0
134 445 146 400 144 356 c 0
141 311 125 268 128 224 c 0
130 202 136 180 150 163 c 0
157 155 166 148 176 143 c 0
186 138 198 136 209 138 c 0
221 139 233 144 242 152 c 0
251 161 259 171 264 182 c 0
274 205 275 231 274 256 c 0
272 281 268 308 256 331 c 0
250 342 242 353 233 361 c 0
223 370 211 376 199 380 c 0
178 384 156 380 140 368 c 0
123 356 112 336 111 316 c 0
107 342 115 369 133 389 c 0
151 408 177 419 204 419 c 0
222 418 240 412 255 401 c 0
270 391 283 377 292 362 c 0
312 331 318 293 319 257 c 0
319 221 314 185 296 154 c 0
287 139 275 126 261 116 c 0
246 106 229 99 212 99 c 0
185 97 158 109 139 128 c 0
120 146 107 171 101 197 c 0
87 249 95 303 99 357 c 0
102 409 99 462 114 512 c 0
122 537 134 561 152 580 c 0
169 600 193 614 219 619 c 0
251 624 286 612 309 589 c 0
331 565 341 530 335 498 c 0
Z
Spiro
443 518 v
396 549 v
203 699 c
25 361 c
209 19 c
393 261 c
213 499 c
-2 347 v
220 538 c
438 262 c
206 -19 c
-19 362 c
194 738 c
388 507 v
339 536 v
213 640 c
84 359 c
210 79 c
334 259 c
206 440 c
54 332 v
211 479 c
379 260 c
209 40 c
39 360 c
206 679 c
335 498 v
283 521 v
222 580 c
144 356 c
209 138 c
274 256 c
199 380 c
111 316 v
204 419 c
319 257 c
212 99 c
99 357 c
219 619 c
0 0 z
EndSpiro
EndSplineSet
        EndChar
StartChar: 8
Encoding: 56 56 0
Width: 526
InSpiro: 1
        Flags: H
        LayerCount: 2
        Back
        SplineSet
211 663 m 0
170 662 128 649 98 621 c 0
84 607 72 590 65 571 c 0
58 552 56 531 60 511 c 0
63 492 71 475 81 460 c 0
92 445 105 432 119 420 c 0
147 397 179 378 211 360 c 0
242 341 273 323 301 299 c 0
315 288 328 275 338 260 c 0
348 245 356 228 360 211 c 0
363 191 361 170 354 152 c 0
347 133 335 116 321 103 c 0
292 76 251 63 212 63 c 0
171 62 130 75 101 102 c 0
86 116 74 133 67 151 c 0
60 170 58 191 62 211 c 0
65 228 73 245 83 260 c 0
93 275 106 288 120 299 c 0
148 323 179 341 211 360 c 0
242 378 274 397 302 420 c 0
316 432 329 445 340 460 c 0
350 475 358 492 362 511 c 0
365 531 363 552 356 571 c 0
349 590 337 607 323 621 c 0
293 649 251 662 211 663 c 0
Z
363 510 m 0
359 491 351 475 341 459 c 0
330 444 317 431 303 419 c 0
275 396 243 377 212 359 c 0
180 340 149 322 121 298 c 0
107 287 94 274 84 259 c 0
73 244 66 227 63 210 c 0
59 190 61 170 68 151 c 0
75 133 87 116 102 103 c 0
131 76 171 64 211 64 c 0
250 64 290 76 319 103 c 0
334 116 346 133 353 151 c 0
360 170 362 190 359 210 c 0
355 227 348 244 337 259 c 0
327 274 314 287 300 298 c 0
272 322 241 340 210 359 c 0
178 377 146 396 118 419 c 0
104 431 92 444 81 460 c 0
71 475 63 492 60 510 c 0
56 530 58 551 64 570 c 0
71 589 83 607 98 621 c 0
127 649 169 663 210 664 c 0
251 664 293 650 323 622 c 0
339 608 350 590 357 571 c 0
364 551 366 530 363 510 c 0
Z
211 661 m 0
170 660 130 647 100 620 c 0
86 606 74 589 67 571 c 0
60 552 58 531 62 512 c 0
65 494 73 477 83 462 c 0
94 447 106 434 120 422 c 0
148 399 180 380 212 362 c 0
243 343 275 324 302 301 c 0
316 289 329 276 340 261 c 0
350 246 358 229 362 212 c 0
365 191 363 170 356 151 c 0
349 132 337 115 322 101 c 0
292 73 250 60 210 61 c 0
169 61 128 74 98 102 c 0
84 116 72 133 65 152 c 0
58 171 56 192 60 212 c 0
63 229 71 246 81 261 c 0
92 276 105 289 119 301 c 0
146 324 178 343 210 362 c 0
241 380 273 399 301 422 c 0
315 434 327 447 338 462 c 0
348 477 356 494 360 512 c 0
363 531 361 552 354 571 c 0
347 589 335 606 321 620 c 0
291 647 251 660 211 661 c 0
Z
361 511 m 0
357 493 349 476 339 461 c 0
328 446 315 433 301 421 c 0
274 398 242 379 211 361 c 0
179 342 147 323 119 300 c 0
105 288 93 275 82 260 c 0
72 245 64 228 61 211 c 0
57 191 59 170 66 151 c 0
73 132 85 115 100 102 c 0
129 75 170 62 211 62 c 0
251 62 292 75 321 102 c 0
336 115 348 132 355 151 c 0
362 170 364 191 361 211 c 0
357 228 349 245 339 260 c 0
328 275 316 288 302 300 c 0
274 323 242 342 211 361 c 0
179 379 147 398 120 421 c 0
106 433 93 446 82 461 c 0
72 476 64 493 61 511 c 0
57 530 59 551 66 571 c 0
73 590 85 607 100 621 c 0
129 648 171 662 212 662 c 0
252 661 293 648 322 620 c 0
337 606 348 589 355 570 c 0
362 551 364 530 361 511 c 0
Z
211 659 m 0
171 658 131 645 102 619 c 0
87 605 76 588 69 570 c 0
62 551 60 531 64 512 c 0
67 494 75 477 85 462 c 0
95 447 108 434 122 423 c 0
150 399 181 381 213 363 c 0
244 344 276 325 304 302 c 0
318 290 331 277 342 262 c 0
352 247 360 230 364 212 c 0
367 191 365 170 358 151 c 0
351 131 339 114 323 100 c 0
293 72 251 59 210 60 c 0
169 60 128 74 99 102 c 0
84 116 72 133 65 152 c 0
58 171 56 192 60 212 c 0
63 229 70 246 81 262 c 0
91 277 104 290 118 302 c 0
145 325 177 344 209 363 c 0
240 381 271 399 299 423 c 0
313 434 326 447 336 462 c 0
346 477 354 494 358 512 c 0
361 531 359 551 352 570 c 0
345 588 334 605 319 619 c 0
290 645 250 658 211 659 c 0
Z
359 511 m 0
355 493 347 476 337 461 c 0
327 446 314 433 300 422 c 0
272 398 241 380 210 362 c 0
178 343 146 324 118 301 c 0
104 289 91 276 81 261 c 0
71 246 63 229 60 211 c 0
56 191 58 170 65 151 c 0
72 132 84 114 99 101 c 0
129 73 170 60 211 60 c 0
251 59 293 73 323 100 c 0
338 114 350 131 357 150 c 0
364 169 366 190 363 211 c 0
359 229 351 246 341 261 c 0
330 276 317 289 303 301 c 0
275 324 243 343 212 362 c 0
180 380 149 398 121 422 c 0
107 433 94 446 84 461 c 0
74 476 66 493 63 511 c 0
59 530 61 551 68 570 c 0
75 589 86 606 101 619 c 0
130 647 171 660 212 660 c 0
251 659 292 646 321 618 c 0
335 605 347 588 353 569 c 0
360 551 362 530 359 511 c 0
Z
Spiro
211 663 c
60 511 c
211 360 a
311 300 h
360 211 c
212 63 c
62 211 c
211 360 a
311 420 h
362 511 c
363 510 c
212 359 a
112 299 h
63 210 c
211 64 c
359 210 c
210 359 a
110 419 h
60 510 c
210 664 c
211 661 c
62 512 c
212 362 a
312 302 h
362 212 c
210 61 c
60 212 c
210 362 a
310 422 h
360 512 c
361 511 c
211 361 a
111 301 h
61 211 c
211 62 c
361 211 c
211 361 a
111 421 h
61 511 c
212 662 c
211 659 c
64 512 c
213 363 a
313 303 h
364 212 c
210 60 c
60 212 c
209 363 a
309 423 h
358 512 c
359 511 c
210 362 a
110 302 h
60 211 c
211 60 c
363 211 c
212 362 a
112 422 h
63 511 c
212 660 c
0 0 z
EndSpiro
EndSplineSet
        Fore
        SplineSet
209 713 m 0
153 712 98 691 59 651 c 0
40 632 25 608 17 581 c 0
9 555 6 527 12 500 c 0
20 457 45 418 77 388 c 0
108 358 146 335 184 313 c 0
209 297 235 284 260 267 c 0
272 259 284 250 293 238 c 0
303 227 310 213 312 199 c 0
313 186 310 173 305 162 c 0
299 151 291 141 281 134 c 0
260 119 235 113 210 113 c 0
184 112 158 118 137 133 c 0
127 140 118 150 112 161 c 0
107 173 104 186 106 199 c 0
107 213 114 227 124 238 c 0
133 250 145 259 157 267 c 0
182 283 208 297 234 313 c 0
271 335 309 358 340 388 c 0
372 418 397 457 406 500 c 0
411 527 408 555 400 581 c 0
392 608 377 632 358 651 c 0
319 691 264 712 209 713 c 0
Z
425 497 m 0
416 452 388 412 355 380 c 0
321 349 282 325 243 302 c 0
219 288 195 275 172 260 c 0
161 253 150 244 141 234 c 0
132 224 126 211 125 198 c 0
123 187 126 177 130 167 c 0
135 158 142 150 150 143 c 0
166 131 188 126 209 126 c 0
229 126 251 131 267 143 c 0
275 150 282 158 287 167 c 0
291 177 294 187 293 198 c 0
291 211 285 224 276 234 c 0
267 244 256 253 245 260 c 0
222 275 198 288 175 302 c 0
135 325 96 349 62 380 c 0
29 412 2 452 -6 497 c 0
-11 526 -9 556 0 585 c 0
9 613 25 639 46 660 c 0
88 703 148 725 208 726 c 0
268 726 329 704 371 662 c 0
393 640 409 614 419 586 c 0
428 557 430 526 425 497 c 0
Z
209 653 m 0
171 652 133 639 106 613 c 0
92 600 82 584 75 566 c 0
69 548 67 529 71 511 c 0
74 493 81 477 91 462 c 0
101 448 113 435 127 423 c 0
154 400 184 383 215 365 c 0
247 345 280 326 309 302 c 0
323 290 337 277 348 262 c 0
359 246 367 229 371 211 c 0
375 189 372 167 364 147 c 0
357 126 344 108 327 94 c 0
295 65 251 52 208 53 c 0
165 53 121 66 89 95 c 0
73 109 60 127 52 147 c 0
45 167 42 189 47 211 c 0
50 229 58 246 69 262 c 0
80 277 94 290 108 302 c 0
137 326 170 345 203 365 c 0
233 383 263 400 290 423 c 0
304 435 316 448 326 462 c 0
336 477 343 493 347 511 c 0
350 529 348 548 342 566 c 0
335 584 325 600 311 613 c 0
284 639 246 652 209 653 c 0
Z
366 508 m 0
362 489 354 472 343 456 c 0
332 441 319 428 305 416 c 0
276 392 244 373 212 354 c 0
181 335 150 317 123 295 c 0
109 283 97 271 86 256 c 0
76 241 69 225 66 208 c 0
62 189 64 169 71 151 c 0
78 133 89 117 103 104 c 0
131 78 170 66 209 66 c 0
247 66 286 78 314 104 c 0
328 117 339 133 346 151 c 0
353 169 355 189 352 208 c 0
348 225 341 241 331 256 c 0
320 271 308 283 294 295 c 0
267 317 236 335 206 354 c 0
173 373 141 392 112 416 c 0
98 428 85 441 74 456 c 0
63 472 55 489 52 508 c 0
47 528 50 550 57 570 c 0
64 590 77 608 92 623 c 0
123 652 167 666 210 666 c 0
252 665 295 651 325 622 c 0
341 608 353 590 360 570 c 0
367 550 369 528 366 508 c 0
Z
209 593 m 0
188 592 168 586 152 573 c 0
145 567 138 558 134 549 c 0
130 540 128 530 130 520 c 0
131 506 137 494 146 483 c 0
155 473 165 465 176 457 c 0
199 442 222 429 246 416 c 0
285 392 325 368 359 337 c 0
393 305 421 266 430 221 c 0
435 191 433 160 423 131 c 0
413 102 396 76 374 55 c 0
330 14 268 -6 208 -6 c 0
148 -5 87 16 44 57 c 0
23 78 6 104 -3 132 c 0
-12 160 -15 191 -10 221 c 0
-1 266 25 305 59 337 c 0
92 368 132 392 172 416 c 0
195 429 218 442 241 457 c 0
252 464 262 473 271 483 c 0
280 494 286 506 288 520 c 0
289 530 287 540 283 549 c 0
279 558 272 567 265 573 c 0
249 586 229 592 209 593 c 0
Z
307 519 m 0
305 504 298 490 288 479 c 0
279 468 268 458 256 450 c 0
232 433 206 420 181 405 c 0
143 382 105 359 73 329 c 0
41 299 15 261 8 218 c 0
3 190 5 162 14 135 c 0
23 109 38 85 58 65 c 0
97 26 153 6 209 6 c 0
264 5 321 26 360 65 c 0
380 85 395 109 404 135 c 0
413 161 416 190 411 218 c 0
402 261 376 299 344 329 c 0
312 359 274 382 237 405 c 0
211 420 185 433 161 450 c 0
149 458 138 468 129 479 c 0
119 490 112 504 111 519 c 0
109 531 111 544 116 555 c 0
122 566 130 576 139 584 c 0
159 599 185 606 210 606 c 0
234 605 259 599 278 583 c 0
288 575 296 566 301 554 c 0
306 543 308 531 307 519 c 0
Z
Spiro
209 713 c
12 500 c
184 313 a
284 253 h
312 199 c
210 113 c
106 199 c
234 313 a
334 373 h
406 500 c
425 497 c
243 302 a
143 242 h
125 198 c
209 126 c
293 198 c
175 302 a
75 362 h
-6 497 c
208 726 c
209 653 c
71 511 c
215 365 a
315 305 h
371 211 c
208 53 c
47 211 c
203 365 a
303 425 h
347 511 c
366 508 c
212 354 a
112 294 h
66 208 c
209 66 c
352 208 c
206 354 a
106 414 h
52 508 c
210 666 c
209 593 c
130 520 c
246 416 a
346 356 h
430 221 c
208 -6 c
-10 221 c
172 416 a
272 476 h
288 520 c
307 519 c
181 405 a
81 345 h
8 218 c
209 6 c
411 218 c
237 405 a
137 465 h
111 519 c
210 606 c
0 0 z
EndSpiro
EndSplineSet
        EndChar
StartChar: 9
Encoding: 57 57 0
Width: 526
InSpiro: 1
        Flags: H
        LayerCount: 2
        Back
        SplineSet
212 59 m 0
211 60 l 0
288 143 342 248 362 361 c 0
370 410 373 461 362 511 c 0
353 548 336 583 310 611 c 0
284 639 249 659 211 662 c 0
170 664 130 648 102 620 c 0
73 591 58 551 60 511 c 0
61 471 77 433 105 405 c 0
133 377 171 361 211 360 c 0
243 358 276 368 303 386 c 0
330 404 351 430 363 461 c 0
351 430 330 403 303 385 c 0
275 366 242 357 210 359 c 0
171 360 132 377 105 405 c 0
77 432 61 471 60 510 c 0
58 550 73 591 101 620 c 0
130 649 171 666 212 663 c 0
249 660 285 640 311 612 c 0
337 584 354 549 363 512 c 0
374 462 372 410 363 360 c 0
342 247 289 142 212 59 c 0
Z
210 60 m 0
209 61 l 0
286 143 340 249 360 362 c 0
368 411 371 462 360 511 c 0
351 547 335 583 309 611 c 0
283 639 247 658 210 661 c 0
170 663 130 647 103 619 c 0
75 591 60 551 62 512 c 0
63 473 79 434 107 407 c 0
134 379 173 363 212 362 c 0
243 361 276 370 302 388 c 0
328 405 349 432 361 462 c 0
349 431 328 405 302 387 c 0
275 369 243 359 211 361 c 0
172 362 133 378 106 406 c 0
78 433 62 472 61 511 c 0
59 550 74 591 102 620 c 0
130 648 171 664 211 662 c 0
248 659 284 639 310 612 c 0
335 584 352 548 361 512 c 0
372 462 369 410 361 361 c 0
340 248 287 143 210 60 c 0
Z
209 61 m 0
208 62 l 0
285 144 338 250 358 362 c 0
366 410 368 461 358 510 c 0
349 546 333 581 308 609 c 0
282 637 247 656 210 659 c 0
171 661 131 645 104 618 c 0
77 590 62 550 64 512 c 0
64 473 81 435 108 408 c 0
135 380 173 364 212 363 c 0
243 361 275 371 301 388 c 0
328 406 348 432 360 462 c 0
348 432 328 405 301 387 c 0
275 370 242 360 211 362 c 0
172 363 134 379 107 407 c 0
80 434 64 472 63 511 c 0
61 550 76 590 104 618 c 0
131 646 171 662 211 660 c 0
248 657 283 637 309 610 c 0
334 582 350 547 359 511 c 0
370 461 367 410 359 361 c 0
339 249 286 143 209 61 c 0
Z
Spiro
212 59 v
211 60 v
362 361 c
362 511 c
211 662 c
60 511 c
211 360 c
363 461 v
210 359 c
60 510 c
212 663 c
363 512 c
363 360 c
210 60 v
209 61 v
360 362 c
360 511 c
210 661 c
62 512 c
212 362 c
361 462 v
211 361 c
61 511 c
211 662 c
361 512 c
361 361 c
209 61 v
208 62 v
358 362 c
358 510 c
210 659 c
64 512 c
212 363 c
360 462 v
211 362 c
63 511 c
211 660 c
359 511 c
359 361 c
0 0 z
EndSpiro
EndSplineSet
        Fore
        SplineSet
224 -35 m 0
219 18 l 0
309 107 371 226 393 352 c 0
402 406 404 463 392 518 c 0
381 562 362 605 330 638 c 0
299 671 257 695 212 699 c 0
161 703 109 682 74 646 c 0
40 609 22 557 25 507 c 0
27 459 48 413 81 379 c 0
115 345 160 323 208 319 c 0
252 314 299 324 337 347 c 0
376 371 407 407 424 449 c 0
412 400 383 356 344 326 c 0
304 295 254 279 205 280 c 0
146 280 88 306 47 347 c 0
6 389 -17 447 -19 506 c 0
-20 567 3 630 46 674 c 0
90 718 153 742 215 738 c 0
269 733 321 707 360 669 c 0
398 630 424 580 437 527 c 0
450 467 448 405 438 345 c 0
412 199 335 62 224 -35 c 0
Z
180 5 m 0
175 59 l 0
257 140 314 248 334 363 c 0
342 409 343 458 334 505 c 0
327 537 314 569 292 594 c 0
270 619 240 637 207 640 c 0
173 642 139 628 116 603 c 0
93 578 82 543 84 510 c 0
85 477 100 445 123 421 c 0
146 397 178 382 211 379 c 0
243 375 278 382 306 399 c 0
334 417 357 443 369 475 c 0
362 437 342 402 312 378 c 0
283 353 246 340 208 340 c 0
163 339 120 358 88 389 c 0
57 421 39 464 39 509 c 0
38 554 55 599 87 631 c 0
119 664 164 682 210 679 c 0
252 676 291 655 321 624 c 0
350 594 369 555 379 514 c 0
390 462 388 408 379 356 c 0
354 221 283 95 180 5 c 0
Z
136 45 m 0
131 99 l 0
206 171 257 269 274 373 c 0
280 412 281 452 275 492 c 0
271 512 266 532 254 549 c 0
248 558 240 565 232 571 c 0
223 576 213 579 203 580 c 0
186 580 169 572 158 559 c 0
148 546 142 528 144 512 c 0
145 493 153 476 165 463 c 0
178 449 195 441 213 438 c 0
234 434 257 438 275 449 c 0
294 461 308 479 315 500 c 0
313 473 301 447 282 428 c 0
263 410 236 399 210 399 c 0
180 398 151 411 131 431 c 0
110 452 99 481 99 511 c 0
98 539 109 567 129 588 c 0
149 608 177 620 206 619 c 0
235 617 263 601 282 578 c 0
302 556 313 528 320 499 c 0
329 455 326 409 319 366 c 0
296 242 231 127 136 45 c 0
Z
Spiro
224 -35 v
219 18 v
393 352 c
392 518 c
212 699 c
25 507 c
208 319 c
424 449 v
205 280 c
-19 506 c
215 738 c
437 527 c
438 345 c
180 5 v
175 59 v
334 363 c
334 505 c
207 640 c
84 510 c
211 379 c
369 475 v
208 340 c
39 509 c
210 679 c
379 514 c
379 356 c
136 45 v
131 99 v
274 373 c
275 492 c
203 580 c
144 512 c
213 438 c
315 500 v
210 399 c
99 511 c
206 619 c
320 499 c
319 366 c
0 0 z
EndSpiro
EndSplineSet
        EndChar
StartChar: A
Encoding: 65 65 0
Width: 526
InSpiro: 1
        Flags: H
        LayerCount: 2
        Back
        SplineSet
63 60 m 0
62 60 l 0
99 211 l 0
212 659 l 0
210 659 l 0
323 211 l 0
360 60 l 0
322 210 l 0
209 660 l 0
209 660 l 0
213 660 l 0
213 660 l 0
100 210 l 0
63 60 l 0
Z
61 60 m 0
60 61 l 0
97 212 l 0
210 662 l 0
210 662 l 0
212 662 l 0
212 662 l 0
325 212 l 0
362 61 l 0
324 211 l 0
211 661 l 0
211 661 l 0
98 211 l 0
61 60 l 0
Z
60 60 m 0
60 61 l 0
95 212 l 0
208 664 l 0
208 664 l 0
214 664 l 0
214 664 l 0
327 212 l 0
364 61 l 0
326 211 l 0
213 663 l 0
209 663 l 0
96 211 l 0
60 60 l 0
Z
97 209 m 0
98 210 l 0
326 210 l 0
97 209 l 0
Z
97 211 m 0
98 212 l 0
326 212 l 0
97 211 l 0
Z
97 213 m 0
98 214 l 0
326 214 l 0
97 213 l 0
Z
Spiro
63 60 v
62 60 v
99 211 v
212 659 v
210 659 v
323 211 v
360 60 v
322 210 v
209 660 v
209 660 v
213 660 v
213 660 v
100 210 v
61 60 v
60 61 v
97 212 v
210 662 v
210 662 v
212 662 v
212 662 v
325 212 v
362 61 v
324 211 v
211 661 v
211 661 v
98 211 v
60 60 v
60 61 v
95 212 v
208 664 v
208 664 v
214 664 v
214 664 v
327 212 v
364 61 v
326 211 v
213 663 v
209 663 v
96 211 v
97 209 v
98 210 v
326 210 v
97 211 v
98 212 v
326 212 v
97 213 v
98 214 v
326 214 v
0 0 z
EndSpiro
EndSplineSet
        Fore
        SplineSet
119 -14 m 0
88 30 l 0
129 200 l 0
238 580 l 0
180 580 l 0
289 200 l 0
311 17 l 0
244 189 l 0
129 620 l 0
129 620 l 0
289 620 l 0
289 620 l 0
174 189 l 0
119 -14 l 0
Z
61 0 m 0
30 45 l 0
71 214 l 0
184 680 l 0
184 680 l 0
234 680 l 0
234 680 l 0
347 214 l 0
369 32 l 0
302 205 l 0
207 656 l 0
211 656 l 0
116 205 l 0
61 0 l 0
Z
3 14 m 0
-27 59 l 0
12 228 l 0
124 740 l 0
124 740 l 0
294 740 l 0
294 740 l 0
406 228 l 0
428 46 l 0
361 219 l 0
254 700 l 0
164 700 l 0
57 219 l 0
3 14 l 0
Z
37 131 m 0
74 170 l 0
354 150 l 0
37 131 l 0
Z
37 191 m 0
74 230 l 0
354 210 l 0
37 191 l 0
Z
37 251 m 0
74 290 l 0
354 270 l 0
37 251 l 0
Z
Spiro
119 -14 v
88 30 v
129 200 v
238 580 v
180 580 v
289 200 v
311 17 v
244 189 v
129 620 v
129 620 v
289 620 v
289 620 v
174 189 v
61 0 v
30 45 v
71 214 v
184 680 v
184 680 v
234 680 v
234 680 v
347 214 v
369 32 v
302 205 v
207 656 v
211 656 v
116 205 v
3 14 v
-27 59 v
12 228 v
124 740 v
124 740 v
294 740 v
294 740 v
406 228 v
428 46 v
361 219 v
254 700 v
164 700 v
57 219 v
37 131 v
74 170 v
354 150 v
37 191 v
74 230 v
354 210 v
37 251 v
74 290 v
354 270 v
0 0 z
EndSpiro
EndSplineSet
        EndChar
StartChar: B
Encoding: 66 66 0
Width: 526
InSpiro: 1
        Flags: H
        LayerCount: 2
        Back
        SplineSet
63 60 m 0
62 60 l 0
62 660 l 0
62 660 l 0
63 660 l 0
212 660 l 0
232 660 252 659 272 654 c 0
291 648 309 638 323 624 c 0
337 609 347 591 352 571 c 0
358 552 359 532 360 512 c 0
360 491 358 471 353 451 c 0
348 431 338 413 324 398 c 0
310 384 292 373 272 368 c 0
252 363 232 362 212 363 c 0
60 364 l 0
212 364 l 0
232 364 252 364 271 369 c 0
291 375 309 385 323 399 c 0
337 414 347 432 352 452 c 0
357 471 359 491 359 512 c 0
358 532 357 552 351 571 c 0
346 590 336 608 322 623 c 0
308 637 290 647 271 652 c 0
252 658 231 658 212 659 c 0
63 660 l 0
63 660 l 0
63 60 l 0
Z
61 60 m 0
60 61 l 0
60 662 l 0
60 662 l 0
61 662 l 0
212 662 l 0
232 662 253 661 272 656 c 0
292 650 311 640 325 625 c 0
339 611 349 592 354 572 c 0
360 553 361 532 362 512 c 0
362 491 360 470 355 450 c 0
350 430 340 412 326 397 c 0
311 382 293 371 273 366 c 0
253 361 232 360 212 361 c 0
60 362 l 0
212 362 l 0
232 362 253 362 272 367 c 0
292 373 310 383 325 398 c 0
339 412 348 431 354 451 c 0
359 470 361 491 361 512 c 0
360 532 359 552 353 572 c 0
348 591 338 610 324 624 c 0
310 639 291 649 272 654 c 0
252 660 232 660 212 661 c 0
61 662 l 0
61 662 l 0
61 60 l 0
Z
60 60 m 0
60 61 l 0
60 664 l 0
60 664 l 0
60 664 l 0
212 664 l 0
232 664 253 663 273 658 c 0
293 652 312 642 326 627 c 0
341 612 351 593 356 573 c 0
362 553 363 532 364 512 c 0
364 491 362 470 357 449 c 0
351 429 342 410 327 395 c 0
313 380 294 370 274 364 c 0
253 359 232 358 212 359 c 0
60 360 l 0
212 360 l 0
232 360 253 360 273 365 c 0
293 371 312 381 326 396 c 0
340 411 350 430 356 450 c 0
361 470 363 491 363 512 c 0
362 532 361 553 355 573 c 0
349 592 340 611 325 626 c 0
311 640 292 651 273 656 c 0
253 662 232 662 212 663 c 0
60 664 l 0
60 664 l 0
60 60 l 0
Z
60 359 m 0
60 360 l 0
212 360 l 0
232 360 252 359 272 354 c 0
291 348 309 338 323 324 c 0
337 309 347 291 352 271 c 0
358 252 359 232 360 212 c 0
360 191 358 171 353 151 c 0
348 131 338 113 324 98 c 0
310 84 292 73 272 68 c 0
252 63 232 62 212 63 c 0
60 64 l 0
212 64 l 0
232 63 252 64 271 69 c 0
291 75 309 85 323 99 c 0
337 114 347 132 352 152 c 0
357 171 359 191 359 212 c 0
358 232 357 252 352 271 c 0
346 290 336 309 323 323 c 0
309 337 290 348 271 353 c 0
252 358 232 359 212 359 c 0
60 359 l 0
Z
60 361 m 0
61 362 l 0
212 362 l 0
232 361 253 361 272 356 c 0
292 350 311 340 325 325 c 0
339 311 349 292 354 272 c 0
360 253 361 232 362 212 c 0
362 191 360 170 355 150 c 0
349 131 339 112 325 97 c 0
311 82 292 72 273 66 c 0
253 61 232 60 212 61 c 0
60 61 l 0
212 62 l 0
232 62 252 62 272 68 c 0
292 73 310 83 324 98 c 0
338 113 348 131 354 151 c 0
359 171 361 191 361 212 c 0
360 232 359 252 354 272 c 0
348 291 338 310 324 325 c 0
310 339 292 349 272 355 c 0
252 360 232 361 212 361 c 0
60 361 l 0
Z
60 363 m 0
61 364 l 0
212 364 l 0
232 364 253 363 273 358 c 0
293 352 312 342 326 327 c 0
341 312 351 293 356 273 c 0
362 253 364 232 364 212 c 0
364 191 362 170 356 150 c 0
351 130 341 111 326 96 c 0
312 81 293 71 273 65 c 0
253 60 232 59 212 60 c 0
60 60 l 0
212 60 l 0
232 59 253 60 273 65 c 0
293 71 312 81 326 96 c 0
340 111 350 130 356 150 c 0
361 170 363 191 363 212 c 0
362 232 361 253 355 273 c 0
350 292 340 311 326 326 c 0
311 341 293 351 273 357 c 0
253 362 232 363 212 363 c 0
60 363 l 0
Z
Spiro
63 60 v
62 60 v
62 660 v
62 660 v
63 660 v
212 660 ]
360 512 c
212 363 [
60 364 v
212 364 ]
359 512 c
212 659 [
63 660 v
63 660 v
61 60 v
60 61 v
60 662 v
60 662 v
61 662 v
212 662 ]
362 512 c
212 361 [
60 362 v
212 362 ]
361 512 c
212 661 [
61 662 v
61 662 v
60 60 v
60 61 v
60 664 v
60 664 v
60 664 v
212 664 ]
364 512 c
212 359 [
60 360 v
212 360 ]
363 512 c
212 663 [
60 664 v
60 664 v
60 359 v
60 360 v
212 360 ]
360 212 c
212 63 [
60 64 v
212 64 ]
359 212 c
212 359 [
60 361 v
61 362 v
212 362 ]
362 212 c
212 61 [
60 61 v
212 62 ]
361 212 c
212 361 [
60 363 v
61 364 v
212 364 ]
364 212 c
212 60 [
60 60 v
212 60 ]
363 212 c
212 363 [
0 0 z
EndSpiro
EndSplineSet
        Fore
        SplineSet
136 1 m 0
94 39 l 0
94 620 l 0
94 620 l 0
117 600 l 0
210 620 l 0
226 623 242 626 259 624 c 0
275 622 291 614 302 602 c 0
314 590 321 574 324 558 c 0
327 542 326 525 326 509 c 0
325 493 324 477 320 462 c 0
315 447 308 432 297 421 c 0
286 410 272 403 256 399 c 0
241 396 225 398 210 400 c 0
28 420 l 0
210 440 l 0
219 441 228 442 237 445 c 0
246 447 254 452 261 459 c 0
268 465 273 473 276 482 c 0
279 491 280 500 280 510 c 0
279 519 277 527 274 536 c 0
270 544 265 552 258 558 c 0
252 564 244 569 236 572 c 0
227 576 218 578 210 580 c 0
117 600 l 0
119 600 l 0
136 1 l 0
Z
76 2 m 0
34 40 l 0
34 680 l 0
34 680 l 0
57 660 l 0
210 680 l 0
234 683 259 685 283 681 c 0
307 676 329 665 346 647 c 0
363 629 374 606 380 583 c 0
385 559 386 534 386 510 c 0
385 485 384 461 379 437 c 0
373 414 362 391 345 374 c 0
328 356 306 344 282 340 c 0
258 335 234 337 210 340 c 0
28 360 l 0
210 380 l 0
227 381 244 384 260 389 c 0
277 394 292 403 304 415 c 0
317 427 326 442 332 459 c 0
337 475 340 492 340 510 c 0
339 527 337 544 331 560 c 0
325 576 316 591 303 603 c 0
291 615 276 624 260 629 c 0
244 635 226 637 210 640 c 0
57 660 l 0
59 660 l 0
76 2 l 0
Z
16 2 m 0
-25 40 l 0
-24 740 l 0
-24 740 l 0
-1 720 l 0
210 740 l 0
242 743 275 745 307 738 c 0
339 731 369 715 391 692 c 0
414 668 429 638 436 607 c 0
444 575 445 542 446 510 c 0
446 477 445 444 437 412 c 0
430 380 415 349 392 326 c 0
370 302 339 286 307 280 c 0
275 273 242 276 210 280 c 0
28 300 l 0
210 320 l 0
235 322 260 325 284 333 c 0
307 341 330 354 348 372 c 0
366 390 379 412 388 435 c 0
396 459 399 484 400 510 c 0
400 535 397 560 388 584 c 0
380 608 367 630 349 648 c 0
331 666 308 679 284 687 c 0
260 694 235 697 210 700 c 0
-1 720 l 0
0 720 l 0
16 2 l 0
Z
0 281 m 0
37 320 l 0
210 320 l 0
225 319 240 319 255 315 c 0
270 311 284 304 295 293 c 0
306 282 314 269 318 254 c 0
323 239 325 224 326 209 c 0
326 193 326 177 322 161 c 0
318 146 310 131 299 120 c 0
287 109 272 102 257 99 c 0
241 96 225 98 210 100 c 0
28 120 l 0
210 140 l 0
219 141 228 142 237 145 c 0
245 148 254 152 260 159 c 0
267 166 272 174 275 182 c 0
278 191 279 200 280 210 c 0
280 219 279 229 277 238 c 0
274 247 270 256 263 263 c 0
256 270 247 274 238 277 c 0
229 279 219 279 210 280 c 0
0 281 l 0
Z
0 341 m 0
37 380 l 0
210 380 l 0
233 379 257 379 279 373 c 0
302 367 323 355 340 339 c 0
356 322 368 301 375 279 c 0
382 256 384 233 386 210 c 0
387 185 386 160 381 137 c 0
375 113 364 90 346 73 c 0
329 55 306 44 282 39 c 0
259 35 234 37 210 40 c 0
28 60 l 0
210 80 l 0
227 81 244 84 260 89 c 0
276 95 291 104 303 116 c 0
316 128 325 143 330 159 c 0
336 175 339 192 340 210 c 0
340 227 339 245 335 262 c 0
330 280 321 296 308 308 c 0
296 321 280 330 262 334 c 0
245 339 227 339 210 340 c 0
0 341 l 0
Z
0 401 m 0
37 440 l 0
210 440 l 0
241 439 273 439 303 431 c 0
334 422 362 406 385 384 c 0
407 362 422 333 431 303 c 0
441 273 444 241 446 210 c 0
447 177 447 143 439 111 c 0
432 79 417 48 394 25 c 0
371 1 340 -13 308 -20 c 0
276 -26 242 -23 210 -20 c 0
28 0 l 0
210 20 l 0
234 22 260 25 283 34 c 0
307 42 329 55 347 72 c 0
365 90 378 112 386 136 c 0
395 159 398 184 400 210 c 0
401 235 399 262 392 287 c 0
385 312 372 336 354 354 c 0
336 372 312 385 287 392 c 0
262 399 236 399 210 400 c 0
0 401 l 0
Z
Spiro
136 1 v
94 39 v
94 620 v
94 620 v
117 600 v
210 620 ]
326 509 c
210 400 [
28 420 v
210 440 ]
280 510 c
210 580 [
117 600 v
119 600 v
76 2 v
34 40 v
34 680 v
34 680 v
57 660 v
210 680 ]
386 510 c
210 340 [
28 360 v
210 380 ]
340 510 c
210 640 [
57 660 v
59 660 v
16 2 v
-25 40 v
-24 740 v
-24 740 v
-1 720 v
210 740 ]
446 510 c
210 280 [
28 300 v
210 320 ]
400 510 c
210 700 [
-1 720 v
0 720 v
0 281 v
37 320 v
210 320 ]
326 209 c
210 100 [
28 120 v
210 140 ]
280 210 c
210 280 [
0 341 v
37 380 v
210 380 ]
386 210 c
210 40 [
28 60 v
210 80 ]
340 210 c
210 340 [
0 401 v
37 440 v
210 440 ]
446 210 c
210 -20 [
28 0 v
210 20 ]
400 210 c
210 400 [
0 0 z
EndSpiro
EndSplineSet
        EndChar
StartChar: I
Encoding: 73 73 0
Width: 226
InSpiro: 1
        Flags: H
        LayerCount: 2
        Back
        SplineSet
60 663 m 0
60 662 l 0
60 61 l 0
60 663 l 0
Z
61 663 m 0
62 662 l 0
62 61 l 0
61 663 l 0
Z
63 663 m 0
64 662 l 0
64 61 l 0
63 663 l 0
Z
Spiro
60 663 v
60 662 v
60 61 v
61 663 v
62 662 v
62 61 v
63 663 v
64 662 v
64 61 v
0 0 z
EndSpiro
EndSplineSet
        Fore
        SplineSet
-16 717 m 0
25 680 l 0
3 31 l 0
-16 717 l 0
Z
43 717 m 0
85 680 l 0
63 31 l 0
43 717 l 0
Z
103 717 m 0
145 680 l 0
123 31 l 0
103 717 l 0
Z
Spiro
-16 717 v
25 680 v
3 31 v
43 717 v
85 680 v
63 31 v
103 717 v
145 680 v
123 31 v
0 0 z
EndSpiro
EndSplineSet
        EndChar
StartChar: J
Encoding: 74 74 0
Width: 526
InSpiro: 1
        Flags: H
        LayerCount: 2
        Back
        SplineSet
60 659 m 0
60 660 l 0
360 660 l 0
360 660 l 0
360 660 l 0
360 362 l 0
359 300 359 238 338 181 c 0
328 152 312 125 290 104 c 0
268 82 241 67 211 62 c 0
178 56 143 64 116 82 c 0
89 100 69 129 62 162 c 0
69 130 89 101 116 83 c 0
143 65 177 57 210 63 c 0
240 67 267 83 289 104 c 0
311 126 327 153 337 181 c 0
358 238 358 301 359 362 c 0
359 660 l 0
360 660 l 0
60 659 l 0
Z
60 661 m 0
61 662 l 0
362 662 l 0
362 662 l 0
362 662 l 0
362 362 l 0
361 300 361 238 340 180 c 0
329 151 313 124 291 103 c 0
270 81 242 66 212 61 c 0
178 55 143 62 115 81 c 0
87 99 67 129 60 162 c 0
67 129 88 100 115 82 c 0
143 63 178 56 211 62 c 0
241 67 268 82 290 104 c 0
312 125 328 152 339 181 c 0
360 238 360 300 361 362 c 0
361 662 l 0
362 662 l 0
60 661 l 0
Z
60 663 m 0
61 664 l 0
364 664 l 0
364 664 l 0
364 664 l 0
364 362 l 0
363 300 363 237 341 179 c 0
331 150 314 123 292 102 c 0
270 80 242 65 212 60 c 0
178 54 143 62 116 80 c 0
88 99 67 128 60 161 c 0
67 128 87 99 115 80 c 0
143 62 178 54 211 60 c 0
241 64 269 80 291 102 c 0
313 123 330 150 340 179 c 0
362 237 362 300 363 362 c 0
363 664 l 0
364 664 l 0
60 663 l 0
Z
Spiro
60 659 v
60 660 v
360 660 v
360 660 v
360 660 v
360 362 ]
211 62 c
62 162 v
210 63 c
359 362 [
359 660 v
360 660 v
60 661 v
61 662 v
362 662 v
362 662 v
362 662 v
362 362 ]
212 61 c
60 162 v
211 62 c
361 362 [
361 662 v
362 662 v
60 663 v
61 664 v
364 664 v
364 664 v
364 664 v
364 362 ]
212 60 c
60 161 v
211 60 c
363 362 [
363 664 v
364 664 v
0 0 z
EndSpiro
EndSplineSet
        Fore
        SplineSet
0 581 m 0
37 620 l 0
302 600 l 0
324 620 l 0
324 620 l 0
325 360 l 0
325 306 326 252 310 201 c 0
302 176 290 152 271 133 c 0
253 114 228 100 202 99 c 0
175 97 148 107 130 126 c 0
111 145 102 172 105 199 c 0
107 178 119 158 136 146 c 0
154 135 176 131 197 138 c 0
216 144 233 158 244 176 c 0
256 193 262 214 267 234 c 0
275 275 276 317 280 359 c 0
299 600 l 0
302 600 l 0
0 581 l 0
Z
0 641 m 0
37 680 l 0
362 660 l 0
384 680 l 0
384 680 l 0
385 360 l 0
385 293 384 224 358 162 c 0
346 132 327 103 302 81 c 0
277 59 246 43 213 40 c 0
171 35 128 48 97 76 c 0
66 104 48 145 49 187 c 0
52 150 72 116 102 96 c 0
132 75 171 69 206 79 c 0
232 86 256 102 274 123 c 0
292 144 305 169 315 195 c 0
333 247 336 303 340 359 c 0
359 660 l 0
362 660 l 0
0 641 l 0
Z
0 701 m 0
37 740 l 0
422 720 l 0
444 740 l 0
444 740 l 0
445 360 l 0
445 279 442 195 407 122 c 0
390 86 365 52 333 27 c 0
301 2 263 -14 223 -19 c 0
167 -25 109 -8 66 27 c 0
22 63 -4 117 -8 173 c 0
-1 122 27 74 69 45 c 0
111 16 166 6 216 19 c 0
249 27 280 45 305 69 c 0
330 93 350 123 363 155 c 0
391 218 396 289 400 359 c 0
419 720 l 0
422 720 l 0
0 701 l 0
Z
Spiro
0 581 v
37 620 v
302 600 v
324 620 v
324 620 v
325 360 ]
202 99 c
105 199 v
197 138 c
280 359 [
299 600 v
302 600 v
0 641 v
37 680 v
362 660 v
384 680 v
384 680 v
385 360 ]
213 40 c
49 187 v
206 79 c
340 359 [
359 660 v
362 660 v
0 701 v
37 740 v
422 720 v
444 740 v
444 740 v
445 360 ]
223 -19 c
-8 173 v
216 19 c
400 359 [
419 720 v
422 720 v
0 0 z
EndSpiro
EndSplineSet
        EndChar
StartChar: K
Encoding: 75 75 0
Width: 526
InSpiro: 1
        Flags: H
        LayerCount: 2
        Back
        SplineSet
360 664 m 0
361 663 l 0
60 361 l 0
60 61 l 0
60 362 l 0
60 361 l 0
360 664 l 0
Z
362 663 m 0
363 662 l 0
62 361 l 0
62 61 l 0
61 362 l 0
61 362 l 0
362 663 l 0
Z
363 661 m 0
364 660 l 0
64 360 l 0
64 61 l 0
63 361 l 0
63 361 l 0
363 661 l 0
Z
60 663 m 0
60 662 l 0
60 361 l 0
360 60 l 0
60 361 l 0
60 360 l 0
60 663 l 0
Z
61 663 m 0
62 662 l 0
62 362 l 0
362 61 l 0
61 361 l 0
61 361 l 0
61 663 l 0
Z
63 663 m 0
64 662 l 0
64 362 l 0
363 62 l 0
63 361 l 0
63 361 l 0
63 663 l 0
Z
Spiro
360 664 v
361 663 v
60 361 v
60 61 v
60 362 v
60 361 v
362 663 v
363 662 v
62 361 v
62 61 v
61 362 v
61 362 v
363 661 v
364 660 v
64 360 v
64 61 v
63 361 v
63 361 v
60 663 v
60 662 v
60 361 v
360 60 v
60 361 v
60 360 v
61 663 v
62 662 v
62 362 v
362 61 v
61 361 v
61 361 v
63 663 v
64 662 v
64 362 v
363 62 v
63 361 v
63 361 v
0 0 z
EndSpiro
EndSplineSet
        Fore
        SplineSet
347 755 m 0
350 702 l 0
24 375 l 0
3 31 l 0
-20 404 l 0
-20 364 l 0
347 755 l 0
Z
390 713 m 0
393 660 l 0
84 351 l 0
63 31 l 0
39 380 l 0
39 380 l 0
390 713 l 0
Z
432 670 m 0
435 617 l 0
144 326 l 0
123 31 l 0
99 355 l 0
99 355 l 0
432 670 l 0
Z
-16 717 m 0
25 679 l 0
24 343 l 0
341 -3 l 0
-20 355 l 0
-20 315 l 0
-16 717 l 0
Z
43 717 m 0
85 679 l 0
84 368 l 0
384 40 l 0
39 340 l 0
39 340 l 0
43 717 l 0
Z
103 717 m 0
145 679 l 0
144 392 l 0
426 82 l 0
99 364 l 0
99 364 l 0
103 717 l 0
Z
Spiro
347 755 v
350 702 v
24 375 v
3 31 v
-20 404 v
-20 364 v
390 713 v
393 660 v
84 351 v
63 31 v
39 380 v
39 380 v
432 670 v
435 617 v
144 326 v
123 31 v
99 355 v
99 355 v
-16 717 v
25 679 v
24 343 v
341 -3 v
-20 355 v
-20 315 v
43 717 v
85 679 v
84 368 v
384 40 v
39 340 v
39 340 v
103 717 v
145 679 v
144 392 v
426 82 v
99 364 v
99 364 v
0 0 z
EndSpiro
EndSplineSet
        EndChar
StartChar: Q
Encoding: 81 81 0
Width: 526
InSpiro: 1
        Flags: H
        LayerCount: 2
        Back
        SplineSet
283 212 m 0
285 211 l 0
360 60 l 0
283 212 l 0
Z
285 213 m 0
287 212 l 0
362 61 l 0
285 213 l 0
Z
286 213 m 0
288 212 l 0
363 61 l 0
286 213 l 0
Z
60 361 m 0
59 298 61 235 80 176 c 0
90 146 105 118 127 96 c 0
149 74 179 60 211 60 c 0
242 60 272 74 294 96 c 0
316 118 331 146 341 176 c 0
360 235 361 298 362 361 c 0
362 423 360 486 341 545 c 0
331 575 316 603 294 625 c 0
272 647 242 661 211 662 c 0
179 662 149 647 127 625 c 0
105 603 90 575 80 545 c 0
61 486 60 423 60 361 c 0
Z
212 663 m 0
243 662 273 647 295 625 c 0
317 603 332 575 342 545 c 0
361 486 363 422 363 360 c 0
362 298 361 234 341 176 c 0
331 146 316 118 294 96 c 0
272 75 242 60 212 60 c 0
180 59 150 74 128 96 c 0
106 118 90 146 81 176 c 0
61 235 59 299 60 362 c 0
60 424 61 487 81 546 c 0
91 576 106 604 128 626 c 0
150 648 180 663 212 663 c 0
Z
62 361 m 0
62 299 63 236 82 177 c 0
91 148 106 120 128 98 c 0
150 76 180 62 211 62 c 0
241 61 271 76 293 98 c 0
315 120 330 148 339 178 c 0
358 237 360 300 360 362 c 0
359 423 358 486 339 545 c 0
330 574 315 602 293 624 c 0
271 646 241 660 211 661 c 0
180 661 150 646 128 624 c 0
106 602 91 574 82 544 c 0
63 485 61 422 62 361 c 0
Z
210 662 m 0
241 662 271 647 293 625 c 0
315 603 330 575 340 545 c 0
359 486 361 423 361 361 c 0
360 298 359 235 340 176 c 0
330 147 315 119 293 97 c 0
270 75 241 60 210 61 c 0
179 61 149 76 127 98 c 0
105 120 90 148 81 177 c 0
62 236 60 300 61 362 c 0
61 423 62 486 81 545 c 0
90 574 105 603 127 624 c 0
149 646 179 661 210 662 c 0
Z
64 361 m 0
63 299 64 237 83 178 c 0
92 149 107 121 129 99 c 0
150 77 180 63 211 63 c 0
241 63 271 77 292 99 c 0
314 121 329 149 338 178 c 0
357 237 357 299 358 361 c 0
358 422 357 484 338 543 c 0
329 572 314 600 292 622 c 0
271 644 241 658 211 659 c 0
180 659 150 644 129 622 c 0
107 600 92 572 83 543 c 0
64 484 64 422 64 361 c 0
Z
210 660 m 0
240 660 270 645 292 623 c 0
314 602 329 574 338 544 c 0
357 486 358 423 359 362 c 0
359 300 358 236 339 178 c 0
329 148 314 120 292 98 c 0
270 76 240 61 210 62 c 0
179 62 149 77 128 98 c 0
106 120 92 148 82 177 c 0
64 236 63 298 63 360 c 0
62 421 63 484 82 543 c 0
91 572 106 600 127 622 c 0
149 644 179 659 210 660 c 0
Z
Spiro
283 212 v
285 211 v
360 60 v
285 213 v
287 212 v
362 61 v
286 213 v
288 212 v
363 61 v
60 361 o
211 60 c
362 361 o
211 662 c
212 663 c
363 360 o
212 60 c
60 362 o
62 361 o
211 62 c
360 362 o
211 661 c
210 662 c
361 361 o
210 61 c
61 362 o
64 361 o
211 63 c
358 361 o
211 659 c
210 660 c
359 362 o
210 62 c
63 360 o
0 0 z
EndSpiro
EndSplineSet
        Fore
        SplineSet
189 225 m 0
243 209 l 0
322 7 l 0
189 225 l 0
Z
242 252 m 0
296 236 l 0
375 34 l 0
242 252 l 0
Z
296 278 m 0
350 262 l 0
429 60 l 0
296 278 l 0
Z
12 359 m 0
11 284 17 208 45 139 c 0
59 104 79 71 107 47 c 0
135 22 171 6 209 6 c 0
246 6 282 22 310 47 c 0
338 71 358 104 372 139 c 0
400 208 405 284 406 359 c 0
406 433 400 509 372 578 c 0
358 613 338 646 310 670 c 0
282 695 246 711 209 712 c 0
171 711 135 695 107 670 c 0
79 646 59 613 45 578 c 0
17 509 12 433 12 359 c 0
Z
210 725 m 0
249 724 287 708 317 683 c 0
347 657 369 624 385 588 c 0
417 516 425 436 425 358 c 0
424 280 416 200 384 129 c 0
369 93 346 60 316 35 c 0
286 10 248 -5 210 -6 c 0
170 -6 132 10 102 35 c 0
72 60 49 93 33 129 c 0
2 201 -6 281 -6 360 c 0
-5 438 2 518 34 589 c 0
50 625 72 658 102 683 c 0
132 708 170 725 210 725 c 0
Z
71 359 m 0
71 299 70 238 87 180 c 0
95 152 109 124 129 102 c 0
150 81 179 66 209 66 c 0
238 65 267 81 288 102 c 0
309 124 322 152 330 181 c 0
347 238 347 299 347 360 c 0
346 419 347 480 330 538 c 0
322 566 308 594 288 616 c 0
267 637 238 652 209 653 c 0
179 653 150 637 129 616 c 0
108 594 95 566 87 537 c 0
70 480 70 419 71 359 c 0
Z
208 666 m 0
239 666 270 651 293 629 c 0
316 607 332 578 343 548 c 0
363 487 366 422 366 359 c 0
365 295 363 230 342 170 c 0
332 140 316 111 293 89 c 0
270 67 239 52 208 53 c 0
176 53 145 68 122 90 c 0
100 112 84 141 74 171 c 0
53 231 51 296 52 360 c 0
52 423 54 487 74 547 c 0
84 577 100 606 123 628 c 0
145 650 176 665 208 666 c 0
Z
131 359 m 0
130 313 124 267 129 221 c 0
131 199 138 176 151 157 c 0
158 148 166 140 176 134 c 0
186 128 197 125 209 125 c 0
220 125 231 128 241 134 c 0
251 140 259 148 266 157 c 0
279 176 286 199 288 221 c 0
293 267 286 313 287 359 c 0
286 404 293 450 288 496 c 0
286 518 279 541 266 560 c 0
259 569 251 577 241 583 c 0
231 589 220 592 209 593 c 0
197 593 186 589 176 583 c 0
166 577 158 569 151 560 c 0
138 541 131 518 129 496 c 0
124 450 131 404 131 359 c 0
Z
208 606 m 0
220 606 232 602 243 597 c 0
254 591 263 583 271 573 c 0
287 554 295 530 300 506 c 0
309 458 305 409 306 360 c 0
306 310 310 260 300 212 c 0
296 187 287 163 271 144 c 0
264 135 254 126 243 121 c 0
232 115 220 111 208 112 c 0
195 112 183 115 173 121 c 0
162 127 152 135 145 145 c 0
129 164 121 187 116 211 c 0
107 259 112 309 112 358 c 0
111 407 107 456 116 505 c 0
120 529 129 553 144 572 c 0
152 582 161 590 172 596 c 0
183 602 195 605 208 606 c 0
Z
Spiro
189 225 v
243 209 v
322 7 v
242 252 v
296 236 v
375 34 v
296 278 v
350 262 v
429 60 v
12 359 o
209 6 c
406 359 o
209 712 c
210 725 c
425 358 o
210 -6 c
-6 360 o
71 359 o
209 66 c
347 360 o
209 653 c
208 666 c
366 359 o
208 53 c
52 360 o
131 359 o
209 125 c
287 359 o
209 593 c
208 606 c
306 360 o
208 112 c
112 358 o
0 0 z
EndSpiro
EndSplineSet
        EndChar
StartChar: R
Encoding: 82 82 0
Width: 526
InSpiro: 1
        Flags: H
        LayerCount: 2
        Back
        SplineSet
63 60 m 0
62 60 l 0
62 660 l 0
62 660 l 0
63 660 l 0
212 660 l 0
232 660 252 659 272 654 c 0
291 648 309 638 323 624 c 0
337 609 347 591 352 571 c 0
358 552 359 532 360 512 c 0
360 491 358 471 353 451 c 0
348 431 338 413 324 398 c 0
310 384 292 373 272 368 c 0
252 363 232 362 212 363 c 0
60 364 l 0
212 364 l 0
232 364 252 364 271 369 c 0
291 375 309 385 323 399 c 0
337 414 347 432 352 452 c 0
357 471 359 491 359 512 c 0
358 532 357 552 351 571 c 0
346 590 336 608 322 623 c 0
308 637 290 647 271 652 c 0
252 658 231 658 212 659 c 0
63 660 l 0
63 660 l 0
63 60 l 0
Z
61 60 m 0
60 61 l 0
60 662 l 0
60 662 l 0
61 662 l 0
212 662 l 0
232 662 253 661 272 656 c 0
292 650 311 640 325 625 c 0
339 611 349 592 354 572 c 0
360 553 361 532 362 512 c 0
362 491 360 470 355 450 c 0
350 430 340 412 326 397 c 0
311 382 293 371 273 366 c 0
253 361 232 360 212 361 c 0
60 362 l 0
212 362 l 0
232 362 253 362 272 367 c 0
292 373 310 383 325 398 c 0
339 412 348 431 354 451 c 0
359 470 361 491 361 512 c 0
360 532 359 552 353 572 c 0
348 591 338 610 324 624 c 0
310 639 291 649 272 654 c 0
252 660 232 660 212 661 c 0
61 662 l 0
61 662 l 0
61 60 l 0
Z
60 60 m 0
60 61 l 0
60 664 l 0
60 664 l 0
60 664 l 0
212 664 l 0
232 664 253 663 273 658 c 0
293 652 312 642 326 627 c 0
341 612 351 593 356 573 c 0
362 553 363 532 364 512 c 0
364 491 362 470 357 449 c 0
351 429 342 410 327 395 c 0
313 380 294 370 274 364 c 0
253 359 232 358 212 359 c 0
60 360 l 0
212 360 l 0
232 360 253 360 273 365 c 0
293 371 312 381 326 396 c 0
340 411 350 430 356 450 c 0
361 470 363 491 363 512 c 0
362 532 361 553 355 573 c 0
349 592 340 611 325 626 c 0
311 640 292 651 273 656 c 0
253 662 232 662 212 663 c 0
60 664 l 0
60 664 l 0
60 60 l 0
Z
60 359 m 0
60 360 l 0
210 360 l 0
210 360 l 0
210 360 l 0
360 60 l 0
209 360 l 0
210 360 l 0
60 359 l 0
Z
60 361 m 0
61 362 l 0
212 362 l 0
212 362 l 0
212 362 l 0
362 61 l 0
211 362 l 0
212 362 l 0
60 361 l 0
Z
60 363 m 0
61 364 l 0
214 364 l 0
214 364 l 0
214 364 l 0
363 61 l 0
213 364 l 0
214 364 l 0
60 363 l 0
Z
Spiro
63 60 v
62 60 v
62 660 v
62 660 v
63 660 v
212 660 ]
360 512 c
212 363 [
60 364 v
212 364 ]
359 512 c
212 659 [
63 660 v
63 660 v
61 60 v
60 61 v
60 662 v
60 662 v
61 662 v
212 662 ]
362 512 c
212 361 [
60 362 v
212 362 ]
361 512 c
212 661 [
61 662 v
61 662 v
60 60 v
60 61 v
60 664 v
60 664 v
60 664 v
212 664 ]
364 512 c
212 359 [
60 360 v
212 360 ]
363 512 c
212 663 [
60 664 v
60 664 v
60 359 v
60 360 v
210 360 v
210 360 v
210 360 v
360 60 v
209 360 v
210 360 v
60 361 v
61 362 v
212 362 v
212 362 v
212 362 v
362 61 v
211 362 v
212 362 v
60 363 v
61 364 v
214 364 v
214 364 v
214 364 v
363 61 v
213 364 v
214 364 v
0 0 z
EndSpiro
EndSplineSet
        Fore
        SplineSet
136 1 m 0
94 39 l 0
94 620 l 0
94 620 l 0
117 600 l 0
210 620 l 0
226 623 242 626 259 624 c 0
275 622 291 614 302 602 c 0
314 590 321 574 324 558 c 0
327 542 326 525 326 509 c 0
325 493 324 477 320 462 c 0
315 447 308 432 297 421 c 0
286 410 272 403 256 399 c 0
241 396 225 398 210 400 c 0
28 420 l 0
210 440 l 0
219 441 228 442 237 445 c 0
246 447 254 452 261 459 c 0
268 465 273 473 276 482 c 0
279 491 280 500 280 510 c 0
279 519 277 527 274 536 c 0
270 544 265 552 258 558 c 0
252 564 244 569 236 572 c 0
227 576 218 578 210 580 c 0
117 600 l 0
119 600 l 0
136 1 l 0
Z
76 2 m 0
34 40 l 0
34 680 l 0
34 680 l 0
57 660 l 0
210 680 l 0
234 683 259 685 283 681 c 0
307 676 329 665 346 647 c 0
363 629 374 606 380 583 c 0
385 559 386 534 386 510 c 0
385 485 384 461 379 437 c 0
373 414 362 391 345 374 c 0
328 356 306 344 282 340 c 0
258 335 234 337 210 340 c 0
28 360 l 0
210 380 l 0
227 381 244 384 260 389 c 0
277 394 292 403 304 415 c 0
317 427 326 442 332 459 c 0
337 475 340 492 340 510 c 0
339 527 337 544 331 560 c 0
325 576 316 591 303 603 c 0
291 615 276 624 260 629 c 0
244 635 226 637 210 640 c 0
57 660 l 0
59 660 l 0
76 2 l 0
Z
16 2 m 0
-25 40 l 0
-24 740 l 0
-24 740 l 0
-1 720 l 0
210 740 l 0
242 743 275 745 307 738 c 0
339 731 369 715 391 692 c 0
414 668 429 638 436 607 c 0
444 575 445 542 446 510 c 0
446 477 445 444 437 412 c 0
430 380 415 349 392 326 c 0
370 302 339 286 307 280 c 0
275 273 242 276 210 280 c 0
28 300 l 0
210 320 l 0
235 322 260 325 284 333 c 0
307 341 330 354 348 372 c 0
366 390 379 412 388 435 c 0
396 459 399 484 400 510 c 0
400 535 397 560 388 584 c 0
380 608 367 630 349 648 c 0
331 666 308 679 284 687 c 0
260 694 235 697 210 700 c 0
-1 720 l 0
0 720 l 0
16 2 l 0
Z
0 281 m 0
37 320 l 0
152 300 l 0
174 320 l 0
174 320 l 0
324 8 l 0
150 300 l 0
152 300 l 0
0 281 l 0
Z
0 341 m 0
37 380 l 0
212 360 l 0
234 380 l 0
234 380 l 0
375 34 l 0
210 360 l 0
212 360 l 0
0 341 l 0
Z
0 401 m 0
37 440 l 0
272 420 l 0
294 440 l 0
294 440 l 0
428 60 l 0
270 420 l 0
272 420 l 0
0 401 l 0
Z
Spiro
136 1 v
94 39 v
94 620 v
94 620 v
117 600 v
210 620 ]
326 509 c
210 400 [
28 420 v
210 440 ]
280 510 c
210 580 [
117 600 v
119 600 v
76 2 v
34 40 v
34 680 v
34 680 v
57 660 v
210 680 ]
386 510 c
210 340 [
28 360 v
210 380 ]
340 510 c
210 640 [
57 660 v
59 660 v
16 2 v
-25 40 v
-24 740 v
-24 740 v
-1 720 v
210 740 ]
446 510 c
210 280 [
28 300 v
210 320 ]
400 510 c
210 700 [
-1 720 v
0 720 v
0 281 v
37 320 v
152 300 v
174 320 v
174 320 v
324 8 v
150 300 v
152 300 v
0 341 v
37 380 v
212 360 v
234 380 v
234 380 v
375 34 v
210 360 v
212 360 v
0 401 v
37 440 v
272 420 v
294 440 v
294 440 v
428 60 v
270 420 v
272 420 v
0 0 z
EndSpiro
EndSplineSet
        EndChar
StartChar: Y
Encoding: 89 89 0
Width: 526
InSpiro: 1
        Flags: H
        LayerCount: 2
        Back
        SplineSet
59 662 m 0
60 661 l 0
211 358 l 0
363 661 l 0
212 356 l 0
211 356 l 0
59 662 l 0
Z
60 663 m 0
62 662 l 0
211 363 l 0
361 662 l 0
212 361 l 0
211 361 l 0
60 663 l 0
Z
61 663 m 0
63 662 l 0
211 367 l 0
360 662 l 0
212 365 l 0
211 365 l 0
61 663 l 0
Z
209 363 m 0
210 362 l 0
210 61 l 0
209 363 l 0
Z
211 363 m 0
212 362 l 0
212 61 l 0
211 363 l 0
Z
213 363 m 0
214 362 l 0
214 61 l 0
213 363 l 0
Z
Spiro
59 662 v
60 661 v
211 358 v
363 661 v
212 356 v
211 356 v
60 663 v
62 662 v
211 363 v
361 662 v
212 361 v
211 361 v
61 663 v
63 662 v
211 367 v
360 662 v
212 365 v
211 365 v
209 363 v
210 362 v
210 61 v
211 363 v
212 362 v
212 61 v
213 363 v
214 362 v
214 61 v
0 0 z
EndSpiro
EndSplineSet
        Fore
        SplineSet
-34 675 m 0
19 659 l 0
209 270 l 0
423 658 l 0
232 205 l 0
187 205 l 0
-34 675 l 0
Z
18 702 m 0
72 686 l 0
209 405 l 0
370 685 l 0
232 340 l 0
187 340 l 0
18 702 l 0
Z
72 729 m 0
126 712 l 0
209 539 l 0
316 711 l 0
232 474 l 0
187 474 l 0
72 729 l 0
Z
133 417 m 0
175 380 l 0
153 31 l 0
133 417 l 0
Z
193 417 m 0
235 380 l 0
213 31 l 0
193 417 l 0
Z
253 417 m 0
295 380 l 0
273 31 l 0
253 417 l 0
Z
Spiro
-34 675 v
19 659 v
209 270 v
423 658 v
232 205 v
187 205 v
18 702 v
72 686 v
209 405 v
370 685 v
232 340 v
187 340 v
72 729 v
126 712 v
209 539 v
316 711 v
232 474 v
187 474 v
133 417 v
175 380 v
153 31 v
193 417 v
235 380 v
213 31 v
253 417 v
295 380 v
273 31 v
0 0 z
EndSpiro
EndSplineSet
        EndChar
StartChar: Z
Encoding: 90 90 0
Width: 526
InSpiro: 1
        Flags: H
        LayerCount: 2
        Back
        SplineSet
60 659 m 0
60 660 l 0
360 660 l 0
360 660 l 0
360 660 l 0
60 60 l 0
363 60 l 0
59 60 l 0
59 60 l 0
359 660 l 0
360 660 l 0
60 659 l 0
Z
60 661 m 0
61 662 l 0
362 662 l 0
362 662 l 0
362 662 l 0
63 62 l 0
363 62 l 0
61 61 l 0
61 61 l 0
361 662 l 0
362 662 l 0
60 661 l 0
Z
60 663 m 0
61 664 l 0
364 664 l 0
364 664 l 0
364 664 l 0
66 64 l 0
363 64 l 0
64 63 l 0
64 63 l 0
363 664 l 0
364 664 l 0
60 663 l 0
Z
Spiro
60 659 v
60 660 v
360 660 v
360 660 v
360 660 v
60 60 v
363 60 v
59 60 v
59 60 v
359 660 v
360 660 v
60 661 v
61 662 v
362 662 v
362 662 v
362 662 v
63 62 v
363 62 v
61 61 v
61 61 v
361 662 v
362 662 v
60 663 v
61 664 v
364 664 v
364 664 v
364 664 v
66 64 v
363 64 v
64 63 v
64 63 v
363 664 v
364 664 v
0 0 z
EndSpiro
EndSplineSet
        Fore
        SplineSet
0 581 m 0
37 620 l 0
302 600 l 0
324 620 l 0
324 620 l 0
2 20 l 0
391 0 l 0
-56 -20 l 0
-56 -20 l 0
299 600 l 0
302 600 l 0
0 581 l 0
Z
0 641 m 0
37 680 l 0
362 660 l 0
384 680 l 0
384 680 l 0
96 80 l 0
391 60 l 0
39 40 l 0
39 40 l 0
359 660 l 0
362 660 l 0
0 641 l 0
Z
0 701 m 0
37 740 l 0
422 720 l 0
444 740 l 0
444 740 l 0
192 140 l 0
391 120 l 0
136 100 l 0
136 100 l 0
419 720 l 0
422 720 l 0
0 701 l 0
Z
Spiro
0 581 v
37 620 v
302 600 v
324 620 v
324 620 v
2 20 v
391 0 v
-56 -20 v
-56 -20 v
299 600 v
302 600 v
0 641 v
37 680 v
362 660 v
384 680 v
384 680 v
96 80 v
391 60 v
39 40 v
39 40 v
359 660 v
362 660 v
0 701 v
37 740 v
422 720 v
444 740 v
444 740 v
192 140 v
391 120 v
136 100 v
136 100 v
419 720 v
422 720 v
0 0 z
EndSpiro
EndSplineSet
        EndChar
StartChar: c
Encoding: 99 99 0
Width: 526
InSpiro: 1
        Flags: H
        LayerCount: 2
        Back
        SplineSet
364 351 m 0
362 352 l 0
345 376 322 396 296 408 c 0
269 420 239 425 211 422 c 0
168 416 128 393 101 360 c 0
74 327 59 283 60 241 c 0
60 198 74 154 101 121 c 0
128 88 168 65 211 60 c 0
240 56 270 61 296 73 c 0
323 85 346 105 363 130 c 0
346 105 323 85 296 73 c 0
269 60 239 56 210 60 c 0
167 65 128 88 101 121 c 0
74 154 60 197 60 240 c 0
59 283 73 326 100 360 c 0
127 393 167 417 210 423 c 0
239 426 270 422 297 409 c 0
324 396 347 376 364 351 c 0
Z
362 350 m 0
360 351 l 0
344 375 321 394 295 407 c 0
269 419 240 424 212 421 c 0
169 416 130 393 103 360 c 0
76 327 62 284 62 242 c 0
61 199 76 156 102 123 c 0
129 89 169 66 212 62 c 0
240 58 270 63 296 75 c 0
322 88 345 107 361 132 c 0
345 107 322 87 296 74 c 0
269 62 239 57 211 61 c 0
168 66 128 89 102 122 c 0
75 155 61 198 61 241 c 0
60 283 74 326 101 360 c 0
128 393 168 416 211 422 c 0
240 425 270 420 296 407 c 0
323 395 346 374 362 350 c 0
Z
361 348 m 0
359 349 l 0
343 373 321 392 295 405 c 0
269 417 240 422 212 419 c 0
170 414 130 391 104 358 c 0
77 325 63 283 64 241 c 0
64 198 77 156 104 123 c 0
130 90 170 67 212 63 c 0
240 59 270 64 296 76 c 0
322 89 344 108 360 133 c 0
344 108 322 88 295 75 c 0
269 63 239 58 211 62 c 0
168 67 129 90 102 123 c 0
76 156 62 199 63 242 c 0
63 284 77 326 103 359 c 0
130 392 169 414 211 420 c 0
240 423 270 418 296 405 c 0
322 393 345 372 361 348 c 0
Z
Spiro
364 351 v
362 352 v
211 422 c
60 241 c
211 60 c
363 130 v
210 60 c
60 240 c
210 423 c
362 350 v
360 351 v
212 421 c
62 242 c
212 62 c
361 132 v
211 61 c
61 241 c
211 422 c
361 348 v
359 349 v
212 419 c
64 241 c
212 63 c
360 133 v
211 62 c
63 242 c
211 420 c
0 0 z
EndSpiro
EndSplineSet
        Fore
        SplineSet
453 401 m 0
398 396 l 0
348 447 272 472 203 459 c 0
152 449 105 421 73 381 c 0
41 341 24 290 25 239 c 0
25 188 44 138 76 98 c 0
108 59 153 31 203 19 c 0
277 0 361 21 419 72 c 0
393 38 358 11 318 -4 c 0
279 -20 235 -25 194 -19 c 0
133 -10 78 22 39 69 c 0
1 116 -19 177 -19 238 c 0
-18 298 3 358 41 405 c 0
79 452 134 486 194 498 c 0
241 507 291 503 337 486 c 0
382 469 423 439 453 401 c 0
Z
416 356 m 0
360 351 l 0
341 370 318 385 293 394 c 0
267 402 240 404 214 400 c 0
177 393 143 372 119 343 c 0
96 314 83 277 84 240 c 0
84 202 98 166 121 137 c 0
145 109 178 88 214 79 c 0
271 63 336 78 381 118 c 0
361 90 334 67 304 54 c 0
273 40 238 35 205 40 c 0
158 46 114 71 84 107 c 0
54 144 38 191 39 239 c 0
39 285 56 332 86 368 c 0
116 404 159 429 205 439 c 0
244 447 285 443 322 428 c 0
360 414 392 388 416 356 c 0
Z
377 311 m 0
321 305 l 0
309 318 294 329 277 335 c 0
261 341 242 343 225 340 c 0
201 335 180 322 165 304 c 0
151 286 143 262 144 239 c 0
144 215 153 193 168 175 c 0
182 157 202 144 225 138 c 0
244 131 266 131 286 135 c 0
307 139 326 149 342 163 c 0
329 141 310 123 288 111 c 0
266 100 240 96 216 99 c 0
182 102 151 120 130 146 c 0
108 172 97 206 99 240 c 0
100 272 112 304 133 329 c 0
154 354 184 372 216 379 c 0
246 385 278 382 307 370 c 0
335 358 360 337 377 311 c 0
Z
Spiro
453 401 v
398 396 v
203 459 c
25 239 c
203 19 c
419 72 v
194 -19 c
-19 238 c
194 498 c
416 356 v
360 351 v
214 400 c
84 240 c
214 79 c
381 118 v
205 40 c
39 239 c
205 439 c
377 311 v
321 305 v
225 340 c
144 239 c
225 138 c
342 163 v
216 99 c
99 240 c
216 379 c
0 0 z
EndSpiro
EndSplineSet
        EndChar
StartChar: e
Encoding: 101 101 0
Width: 526
InSpiro: 1
        Flags: H
        LayerCount: 2
        Back
        SplineSet
90 239 m 0
91 240 l 0
362 240 l 0
375 271 375 309 362 341 c 0
349 369 327 392 300 406 c 0
273 420 241 425 211 422 c 0
168 416 128 393 101 360 c 0
74 326 60 283 60 241 c 0
59 198 74 154 101 121 c 0
128 88 168 65 211 60 c 0
240 56 270 61 296 73 c 0
323 85 346 105 363 130 c 0
346 105 323 85 296 73 c 0
269 60 239 56 210 60 c 0
167 65 127 88 100 122 c 0
73 155 59 199 60 242 c 0
60 284 74 327 101 360 c 0
128 393 167 417 210 423 c 0
240 427 272 422 300 408 c 0
327 393 350 370 363 342 c 0
377 309 377 271 363 239 c 0
363 239 l 0
90 239 l 0
Z
90 241 m 0
91 242 l 0
360 242 l 0
373 273 373 309 360 341 c 0
348 368 326 391 299 405 c 0
272 419 241 424 212 421 c 0
169 415 130 392 103 359 c 0
76 326 61 283 62 241 c 0
62 198 76 155 103 122 c 0
130 89 169 66 212 62 c 0
240 58 270 63 296 75 c 0
322 88 345 107 361 132 c 0
345 107 322 87 296 74 c 0
269 62 239 57 211 61 c 0
168 65 128 89 101 122 c 0
74 155 60 199 61 242 c 0
61 284 75 327 102 360 c 0
129 393 168 416 211 422 c 0
241 425 272 420 299 406 c 0
326 392 348 369 361 342 c 0
374 310 374 272 361 241 c 0
361 241 l 0
90 241 l 0
Z
90 243 m 0
91 244 l 0
359 244 l 0
371 274 371 309 359 340 c 0
347 367 325 390 298 404 c 0
272 417 241 422 212 419 c 0
170 413 130 390 104 357 c 0
77 324 63 282 64 240 c 0
64 197 78 155 104 123 c 0
131 90 170 67 212 63 c 0
240 59 270 64 296 76 c 0
322 89 344 108 360 133 c 0
344 108 321 88 295 75 c 0
269 63 239 58 211 62 c 0
168 67 129 89 103 123 c 0
76 156 62 198 63 241 c 0
63 283 77 325 103 358 c 0
130 391 169 414 211 420 c 0
240 424 272 419 298 405 c 0
325 391 348 368 360 341 c 0
373 310 373 273 360 243 c 0
360 243 l 0
90 243 l 0
Z
Spiro
90 239 v
91 240 v
362 240 v
362 341 c
211 422 c
60 241 c
211 60 c
363 130 v
210 60 c
60 242 c
210 423 c
363 342 c
363 239 v
363 239 v
90 241 v
91 242 v
360 242 v
360 341 c
212 421 c
62 241 c
212 62 c
361 132 v
211 61 c
61 242 c
211 422 c
361 342 c
361 241 v
361 241 v
90 243 v
91 244 v
359 244 v
359 340 c
212 419 c
64 240 c
212 63 c
360 133 v
211 62 c
63 241 c
211 420 c
360 341 c
360 243 v
360 243 v
0 0 z
EndSpiro
EndSplineSet
        Fore
        SplineSet
60 161 m 0
97 200 l 0
384 200 l 0
409 246 411 305 390 354 c 0
374 388 347 418 314 436 c 0
280 455 241 463 204 459 c 0
152 453 103 425 71 384 c 0
39 343 22 290 25 239 c 0
26 188 45 139 77 99 c 0
109 60 154 32 203 20 c 0
277 1 361 21 419 72 c 0
393 38 358 11 318 -3 c 0
279 -19 235 -24 194 -18 c 0
134 -8 78 23 40 70 c 0
2 117 -18 177 -19 238 c 0
-19 299 1 362 40 409 c 0
80 457 137 490 199 498 c 0
246 503 294 494 336 472 c 0
378 449 412 413 433 371 c 0
448 337 455 300 453 263 c 0
450 226 438 190 419 160 c 0
419 160 l 0
60 161 l 0
Z
60 221 m 0
97 260 l 0
342 260 l 0
347 283 344 308 335 331 c 0
324 353 306 373 284 385 c 0
262 397 236 402 212 400 c 0
174 396 139 375 116 345 c 0
93 316 82 277 84 240 c 0
85 203 99 167 122 138 c 0
146 109 178 88 214 79 c 0
271 63 336 78 381 118 c 0
362 90 335 67 304 53 c 0
273 40 238 35 205 40 c 0
158 46 114 71 85 108 c 0
55 144 39 191 39 239 c 0
38 286 54 334 85 371 c 0
115 408 159 433 207 439 c 0
241 443 276 436 307 421 c 0
337 405 363 379 378 348 c 0
396 308 397 260 380 220 c 0
380 220 l 0
60 221 l 0
Z
60 281 m 0
97 320 l 0
294 308 l 0
291 305 289 302 286 301 c 0
279 297 272 297 265 300 c 0
258 302 252 306 247 311 c 0
242 316 237 321 232 326 c 0
227 332 222 336 216 340 c 0
204 345 190 345 178 340 c 0
166 336 157 326 150 315 c 0
144 304 140 291 140 279 c 0
139 266 141 253 144 241 c 0
149 218 158 197 171 178 c 0
185 160 203 145 225 137 c 0
244 129 266 127 287 132 c 0
308 137 327 148 342 164 c 0
330 141 311 122 289 110 c 0
267 99 241 94 216 98 c 0
183 102 152 120 131 146 c 0
111 171 99 204 99 238 c 0
98 271 108 306 129 333 c 0
150 359 183 377 217 379 c 0
236 379 255 375 273 366 c 0
290 358 305 345 317 330 c 0
328 315 335 298 340 280 c 0
340 280 l 0
60 281 l 0
Z
Spiro
60 161 v
97 200 v
384 200 v
390 354 c
204 459 c
25 239 c
203 20 c
419 72 v
194 -18 c
-19 238 c
199 498 c
433 371 c
419 160 v
419 160 v
60 221 v
97 260 v
342 260 v
335 331 c
212 400 c
84 240 c
214 79 c
381 118 v
205 40 c
39 239 c
207 439 c
378 348 c
380 220 v
380 220 v
60 281 v
97 320 v
294 308 v
286 301 c
216 340 c
144 241 c
225 137 c
342 164 v
216 98 c
99 238 c
217 379 c
317 330 c
340 280 v
340 280 v
0 0 z
EndSpiro
EndSplineSet
        EndChar
StartChar: f
Encoding: 102 102 0
Width: 376
InSpiro: 1
        Flags: H
        LayerCount: 2
        Back
        SplineSet
212 663 m 0
211 662 l 0
185 657 160 647 139 632 c 0
118 617 100 597 88 574 c 0
75 551 67 525 64 500 c 0
60 474 59 448 60 422 c 0
60 61 l 0
60 422 l 0
60 448 60 474 64 500 c 0
68 526 75 551 88 574 c 0
100 597 118 618 139 633 c 0
161 648 186 659 212 663 c 0
Z
213 662 m 0
212 661 l 0
186 656 161 646 140 631 c 0
119 616 102 596 89 573 c 0
77 550 69 525 66 499 c 0
62 474 61 447 62 422 c 0
62 61 l 0
61 422 l 0
60 448 61 474 64 500 c 0
68 526 76 551 89 574 c 0
101 597 119 617 140 633 c 0
162 648 187 658 213 662 c 0
Z
213 660 m 0
212 659 l 0
186 654 162 644 141 629 c 0
120 614 103 594 91 571 c 0
79 549 71 524 67 498 c 0
64 473 63 447 64 422 c 0
64 61 l 0
63 422 l 0
62 447 63 473 66 499 c 0
70 525 78 550 90 573 c 0
103 595 120 615 141 631 c 0
162 646 187 656 213 660 c 0
Z
60 419 m 0
60 420 l 0
213 420 l 0
60 419 l 0
Z
60 421 m 0
61 422 l 0
213 422 l 0
60 421 l 0
Z
60 423 m 0
61 424 l 0
213 424 l 0
60 423 l 0
Z
Spiro
212 663 v
211 662 v
60 422 [
60 61 v
60 422 ]
213 662 v
212 661 v
62 422 [
62 61 v
61 422 ]
213 660 v
212 659 v
64 422 [
64 61 v
63 422 ]
60 419 v
60 420 v
213 420 v
60 421 v
61 422 v
213 422 v
60 423 v
61 424 v
213 424 v
0 0 z
EndSpiro
EndSplineSet
        Fore
        SplineSet
257 743 m 0
224 701 l 0
192 697 162 686 135 669 c 0
109 652 86 628 70 601 c 0
53 574 42 544 36 513 c 0
29 483 27 451 26 420 c 0
3 31 l 0
-20 420 l 0
-22 462 -24 506 -18 548 c 0
-12 591 2 632 28 667 c 0
53 702 89 729 130 742 c 0
171 756 216 756 257 743 c 0
Z
265 688 m 0
235 644 l 0
186 635 143 603 119 561 c 0
106 540 98 516 93 492 c 0
89 468 87 444 86 420 c 0
63 31 l 0
40 420 l 0
37 455 36 490 41 525 c 0
46 560 58 594 78 622 c 0
99 651 128 673 161 685 c 0
194 697 231 698 265 688 c 0
Z
270 635 m 0
248 587 l 0
214 577 185 552 168 522 c 0
151 491 148 455 146 420 c 0
123 31 l 0
100 420 l 0
98 447 97 474 100 501 c 0
104 528 113 554 128 576 c 0
143 599 165 617 190 627 c 0
215 638 243 640 270 635 c 0
Z
0 341 m 0
37 380 l 0
241 360 l 0
0 341 l 0
Z
0 401 m 0
37 440 l 0
241 420 l 0
0 401 l 0
Z
0 461 m 0
37 500 l 0
241 480 l 0
0 461 l 0
Z
Spiro
257 743 v
224 701 v
26 420 [
3 31 v
-20 420 ]
265 688 v
235 644 v
86 420 [
63 31 v
40 420 ]
270 635 v
248 587 v
146 420 [
123 31 v
100 420 ]
0 341 v
37 380 v
241 360 v
0 401 v
37 440 v
241 420 v
0 461 v
37 500 v
241 480 v
0 0 z
EndSpiro
EndSplineSet
        EndChar
StartChar: k
Encoding: 107 107 0
Width: 466
InSpiro: 1
        Flags: H
        LayerCount: 2
        Back
        SplineSet
60 663 m 0
60 662 l 0
60 61 l 0
60 663 l 0
Z
61 663 m 0
62 662 l 0
62 61 l 0
61 663 l 0
Z
63 663 m 0
64 662 l 0
64 61 l 0
63 663 l 0
Z
301 424 m 0
301 422 l 0
60 241 l 0
300 60 l 0
59 241 l 0
59 242 l 0
301 424 l 0
Z
303 423 m 0
303 421 l 0
63 242 l 0
302 61 l 0
61 241 l 0
61 242 l 0
303 423 l 0
Z
304 421 m 0
304 419 l 0
66 241 l 0
303 62 l 0
64 241 l 0
64 242 l 0
304 421 l 0
Z
Spiro
60 663 v
60 662 v
60 61 v
61 663 v
62 662 v
62 61 v
63 663 v
64 662 v
64 61 v
301 424 v
301 422 v
60 241 v
300 60 v
59 241 v
59 242 v
303 423 v
303 421 v
63 242 v
302 61 v
61 241 v
61 242 v
304 421 v
304 419 v
66 241 v
303 62 v
64 241 v
64 242 v
0 0 z
EndSpiro
EndSplineSet
        Fore
        SplineSet
-16 717 m 0
25 680 l 0
3 31 l 0
-16 717 l 0
Z
43 717 m 0
85 680 l 0
63 31 l 0
43 717 l 0
Z
103 717 m 0
145 680 l 0
123 31 l 0
103 717 l 0
Z
301 517 m 0
295 464 l 0
0 240 l 0
289 -5 l 0
-59 220 l 0
-59 260 l 0
301 517 l 0
Z
337 469 m 0
331 416 l 0
99 240 l 0
325 42 l 0
40 220 l 0
40 260 l 0
337 469 l 0
Z
372 421 m 0
367 368 l 0
199 240 l 0
361 90 l 0
140 220 l 0
140 260 l 0
372 421 l 0
Z
Spiro
-16 717 v
25 680 v
3 31 v
43 717 v
85 680 v
63 31 v
103 717 v
145 680 v
123 31 v
301 517 v
295 464 v
0 240 v
289 -5 v
-59 220 v
-59 260 v
337 469 v
331 416 v
99 240 v
325 42 v
40 220 v
40 260 v
372 421 v
367 368 v
199 240 v
361 90 v
140 220 v
140 260 v
0 0 z
EndSpiro
EndSplineSet
        EndChar
StartChar: m
Encoding: 109 109 0
Width: 706
InSpiro: 1
        Flags: H
        LayerCount: 2
        Back
        SplineSet
60 423 m 0
60 422 l 0
60 61 l 0
60 423 l 0
Z
61 423 m 0
62 422 l 0
62 61 l 0
61 423 l 0
Z
63 423 m 0
64 422 l 0
64 61 l 0
63 423 l 0
Z
63 60 m 0
62 60 l 0
62 321 l 0
64 355 83 388 111 407 c 0
140 426 178 431 211 420 c 0
227 414 243 404 255 391 c 0
268 378 278 363 285 347 c 0
298 314 300 277 300 242 c 0
300 61 l 0
299 242 l 0
298 277 297 313 283 346 c 0
276 362 267 378 254 390 c 0
242 403 226 413 210 419 c 0
177 430 140 425 111 406 c 0
83 387 64 354 63 320 c 0
63 60 l 0
Z
61 60 m 0
60 61 l 0
60 322 l 0
62 356 81 390 111 409 c 0
140 428 178 433 212 422 c 0
229 416 244 405 257 393 c 0
269 380 279 364 286 348 c 0
300 315 302 278 302 242 c 0
302 61 l 0
301 242 l 0
300 277 299 314 285 347 c 0
278 364 268 379 256 392 c 0
243 405 227 415 211 421 c 0
178 432 140 427 111 408 c 0
82 389 63 355 61 321 c 0
61 60 l 0
Z
60 60 m 0
60 61 l 0
60 322 l 0
62 356 81 390 111 409 c 0
140 429 178 434 212 423 c 0
229 417 245 407 258 394 c 0
271 381 281 366 288 349 c 0
302 315 304 278 304 242 c 0
304 61 l 0
303 242 l 0
302 278 301 315 287 348 c 0
279 365 269 380 256 393 c 0
243 406 228 416 211 422 c 0
177 433 139 428 110 408 c 0
81 389 62 355 60 321 c 0
60 60 l 0
Z
303 60 m 0
302 60 l 0
302 272 l 0
302 293 302 314 306 335 c 0
311 355 320 375 334 391 c 0
349 407 367 418 388 423 c 0
409 428 431 427 451 420 c 0
484 407 511 379 524 347 c 0
538 314 540 277 540 242 c 0
540 61 l 0
539 242 l 0
538 277 537 313 523 346 c 0
509 379 483 407 450 419 c 0
430 425 408 427 388 422 c 0
367 417 349 405 335 390 c 0
321 374 312 354 307 334 c 0
303 314 302 292 303 272 c 0
303 60 l 0
Z
301 60 m 0
300 61 l 0
300 272 l 0
300 293 300 315 305 336 c 0
309 357 319 377 333 393 c 0
348 409 367 420 388 425 c 0
409 430 431 429 452 422 c 0
485 409 512 381 526 348 c 0
540 315 542 278 542 242 c 0
542 61 l 0
541 242 l 0
540 277 539 314 525 347 c 0
511 380 484 408 451 421 c 0
430 428 408 429 388 424 c 0
367 419 348 408 334 392 c 0
319 376 310 356 305 335 c 0
301 314 300 293 301 272 c 0
301 60 l 0
Z
299 60 m 0
298 61 l 0
298 272 l 0
298 293 298 315 303 336 c 0
308 358 317 378 332 394 c 0
347 410 366 422 387 427 c 0
408 431 431 430 452 423 c 0
486 410 513 382 528 349 c 0
542 315 544 278 544 242 c 0
544 61 l 0
543 242 l 0
542 278 541 315 526 348 c 0
512 381 485 409 451 422 c 0
430 429 408 430 387 425 c 0
366 420 347 409 332 393 c 0
318 377 308 357 304 336 c 0
299 315 298 293 299 272 c 0
299 60 l 0
Z
Spiro
60 423 v
60 422 v
60 61 v
61 423 v
62 422 v
62 61 v
63 423 v
64 422 v
64 61 v
63 60 v
62 60 v
62 321 v
211 420 c
300 242 [
300 61 v
299 242 ]
210 419 c
63 320 v
61 60 v
60 61 v
60 322 v
212 422 c
302 242 [
302 61 v
301 242 ]
211 421 c
61 321 v
60 60 v
60 61 v
60 322 v
212 423 c
304 242 [
304 61 v
303 242 ]
211 422 c
60 321 v
303 60 v
302 60 v
302 272 ]
451 420 c
540 242 [
540 61 v
539 242 ]
450 419 c
303 272 [
301 60 v
300 61 v
300 272 ]
452 422 c
542 242 [
542 61 v
541 242 ]
451 421 c
301 272 [
299 60 v
298 61 v
298 272 ]
452 423 c
544 242 [
544 61 v
543 242 ]
451 422 c
299 272 [
0 0 z
EndSpiro
EndSplineSet
        Fore
        SplineSet
-16 477 m 0
25 440 l 0
3 31 l 0
-16 477 l 0
Z
43 477 m 0
85 440 l 0
63 31 l 0
43 477 l 0
Z
103 477 m 0
145 440 l 0
123 31 l 0
103 477 l 0
Z
136 1 m 0
94 39 l 0
94 319 l 0
99 340 113 359 133 371 c 0
152 382 176 386 198 381 c 0
212 377 225 370 235 360 c 0
246 351 254 338 260 325 c 0
265 312 268 297 268 283 c 0
269 268 267 254 266 240 c 0
243 31 l 0
220 240 l 0
217 259 217 278 213 297 c 0
211 307 209 316 204 325 c 0
199 333 192 340 183 344 c 0
173 347 162 346 154 340 c 0
145 335 139 326 139 316 c 0
136 1 l 0
Z
76 2 m 0
34 40 l 0
34 320 l 0
42 359 67 395 100 417 c 0
134 438 177 446 217 438 c 0
237 433 257 424 273 411 c 0
290 399 304 382 313 363 c 0
322 344 327 323 329 302 c 0
330 281 328 260 326 240 c 0
303 31 l 0
280 240 l 0
276 271 273 302 261 331 c 0
256 346 248 360 238 372 c 0
228 384 216 394 202 401 c 0
188 406 173 409 159 408 c 0
144 406 130 401 118 393 c 0
105 385 95 374 88 361 c 0
82 348 78 333 79 319 c 0
76 2 l 0
Z
16 2 m 0
-25 40 l 0
-24 322 l 0
-12 378 22 429 70 461 c 0
118 493 179 505 236 495 c 0
263 489 289 479 312 463 c 0
334 447 353 426 367 402 c 0
380 377 387 350 389 322 c 0
391 295 389 267 386 240 c 0
363 31 l 0
340 240 l 0
335 282 329 326 311 365 c 0
293 404 262 439 223 456 c 0
178 474 124 469 84 442 c 0
44 415 19 367 20 319 c 0
16 2 l 0
Z
376 1 m 0
334 39 l 0
334 270 l 0
334 284 334 299 337 314 c 0
340 328 346 342 355 354 c 0
364 365 377 374 391 379 c 0
405 384 420 385 435 382 c 0
449 378 462 372 474 362 c 0
485 352 493 340 499 326 c 0
505 313 507 298 508 284 c 0
509 269 507 254 506 240 c 0
483 31 l 0
460 240 l 0
457 259 457 278 455 298 c 0
453 307 451 317 446 325 c 0
444 330 440 333 437 336 c 0
433 339 428 342 424 343 c 0
416 344 407 341 401 337 c 0
394 332 389 325 386 317 c 0
380 302 380 286 380 270 c 0
376 1 l 0
Z
316 2 m 0
274 40 l 0
274 270 l 0
274 295 274 320 280 344 c 0
287 369 299 391 317 409 c 0
335 426 358 438 383 443 c 0
408 447 433 445 458 438 c 0
477 432 496 422 513 409 c 0
529 397 543 380 552 362 c 0
562 343 567 323 568 302 c 0
570 281 568 260 566 240 c 0
543 31 l 0
520 240 l 0
516 271 513 302 502 332 c 0
497 346 490 360 480 373 c 0
470 385 457 395 443 401 c 0
426 407 407 408 390 402 c 0
372 397 357 386 346 372 c 0
335 358 328 341 324 323 c 0
320 306 320 288 320 270 c 0
316 2 l 0
Z
256 2 m 0
214 40 l 0
214 270 l 0
214 305 214 340 224 374 c 0
233 408 252 440 279 463 c 0
305 486 339 500 374 505 c 0
409 509 445 504 479 494 c 0
504 485 529 474 551 458 c 0
573 442 592 422 605 398 c 0
619 374 626 348 629 321 c 0
631 294 628 266 626 240 c 0
603 31 l 0
580 240 l 0
575 283 569 326 551 366 c 0
532 405 501 440 462 457 c 0
436 467 407 471 379 466 c 0
352 460 326 446 307 426 c 0
287 406 274 380 267 353 c 0
261 326 260 297 260 270 c 0
256 2 l 0
Z
Spiro
-16 477 v
25 440 v
3 31 v
43 477 v
85 440 v
63 31 v
103 477 v
145 440 v
123 31 v
136 1 v
94 39 v
94 319 v
198 381 c
266 240 [
243 31 v
220 240 ]
183 344 c
139 316 v
76 2 v
34 40 v
34 320 v
217 438 c
326 240 [
303 31 v
280 240 ]
202 401 c
79 319 v
16 2 v
-25 40 v
-24 322 v
236 495 c
386 240 [
363 31 v
340 240 ]
223 456 c
20 319 v
376 1 v
334 39 v
334 270 ]
435 382 c
506 240 [
483 31 v
460 240 ]
424 343 c
380 270 [
316 2 v
274 40 v
274 270 ]
458 438 c
566 240 [
543 31 v
520 240 ]
443 401 c
320 270 [
256 2 v
214 40 v
214 270 ]
479 494 c
626 240 [
603 31 v
580 240 ]
462 457 c
260 270 [
0 0 z
EndSpiro
EndSplineSet
        EndChar
StartChar: o
Encoding: 111 111 0
Width: 526
InSpiro: 1
        Flags: H
        LayerCount: 2
        Back
        SplineSet
211 422 m 0
189 422 167 416 148 405 c 0
128 395 112 380 98 363 c 0
72 329 59 284 60 241 c 0
60 197 72 152 98 118 c 0
112 101 128 86 148 76 c 0
167 65 189 60 211 60 c 0
232 59 254 65 273 76 c 0
293 86 309 101 323 118 c 0
349 152 361 197 362 241 c 0
361 284 349 329 323 363 c 0
309 380 293 395 273 405 c 0
254 416 232 421 211 422 c 0
Z
363 242 m 0
363 197 350 152 323 118 c 0
310 100 293 85 273 75 c 0
254 65 232 59 210 60 c 0
188 60 166 66 147 76 c 0
128 86 112 101 98 118 c 0
72 152 60 196 60 240 c 0
59 284 71 329 98 364 c 0
112 381 128 396 148 406 c 0
167 417 189 423 212 423 c 0
233 422 255 417 274 406 c 0
293 396 310 381 324 364 c 0
350 329 362 285 363 242 c 0
Z
211 421 m 0
189 420 167 415 148 405 c 0
129 394 113 380 100 363 c 0
74 328 62 285 62 242 c 0
61 198 73 154 99 120 c 0
113 102 129 88 148 78 c 0
167 67 189 61 211 62 c 0
232 62 254 67 273 77 c 0
292 88 308 102 321 119 c 0
347 154 359 197 360 241 c 0
360 284 348 328 322 362 c 0
308 380 292 394 273 404 c 0
254 415 232 421 211 421 c 0
Z
361 242 m 0
361 198 349 154 323 119 c 0
310 102 293 87 274 77 c 0
255 67 233 61 212 61 c 0
190 60 168 66 149 76 c 0
130 86 113 101 99 118 c 0
73 153 61 197 61 241 c 0
60 284 72 328 98 363 c 0
111 380 128 395 147 405 c 0
166 415 188 421 210 422 c 0
231 422 253 416 272 406 c 0
291 396 308 381 322 364 c 0
348 329 360 285 361 242 c 0
Z
211 419 m 0
189 418 168 413 149 403 c 0
130 392 114 378 101 361 c 0
75 327 64 283 64 241 c 0
63 198 75 154 101 120 c 0
114 103 130 89 149 78 c 0
168 68 189 63 211 63 c 0
232 62 253 68 272 78 c 0
291 89 307 103 320 120 c 0
346 154 357 198 358 241 c 0
357 283 346 327 320 361 c 0
307 378 291 392 272 403 c 0
253 413 232 418 211 419 c 0
Z
359 240 m 0
358 197 347 153 321 119 c 0
308 102 292 88 273 78 c 0
254 68 233 62 212 62 c 0
190 61 168 67 149 77 c 0
130 87 113 102 100 119 c 0
74 154 62 198 63 242 c 0
63 284 74 328 100 362 c 0
113 379 129 393 148 403 c 0
167 413 188 419 210 420 c 0
231 420 253 414 272 404 c 0
291 394 308 379 321 362 c 0
347 327 359 283 359 240 c 0
Z
Spiro
211 422 c
60 241 c
211 60 c
362 241 c
363 242 c
210 60 c
60 240 c
212 423 c
211 421 c
62 242 c
211 62 c
360 241 c
361 242 c
212 61 c
61 241 c
210 422 c
211 419 c
64 241 c
211 63 c
358 241 c
359 240 c
212 62 c
63 242 c
210 420 c
0 0 z
EndSpiro
EndSplineSet
        Fore
        SplineSet
209 472 m 0
180 472 152 464 127 451 c 0
102 438 80 419 63 397 c 0
28 352 11 295 12 239 c 0
12 182 28 125 63 80 c 0
80 58 102 39 127 26 c 0
152 13 180 6 209 6 c 0
237 5 265 13 290 26 c 0
315 39 337 58 354 80 c 0
389 125 405 182 406 239 c 0
405 295 389 352 354 397 c 0
337 419 315 438 290 451 c 0
265 464 237 471 209 472 c 0
Z
425 240 m 0
425 179 405 117 366 70 c 0
328 24 268 -6 208 -6 c 0
148 -5 89 25 51 71 c 0
13 117 -5 178 -6 238 c 0
-6 298 12 360 51 407 c 0
90 454 149 485 210 485 c 0
270 484 328 454 367 407 c 0
405 361 424 300 425 240 c 0
Z
209 413 m 0
188 412 168 407 150 397 c 0
132 387 117 372 105 356 c 0
81 322 71 280 71 240 c 0
70 198 80 156 104 123 c 0
116 106 132 92 150 81 c 0
167 71 188 65 209 66 c 0
229 66 249 71 267 81 c 0
285 91 300 106 312 122 c 0
336 156 346 198 347 239 c 0
347 280 337 322 313 355 c 0
301 372 285 386 267 397 c 0
250 407 229 413 209 413 c 0
Z
366 240 m 0
366 194 353 149 325 113 c 0
312 95 294 80 274 69 c 0
254 59 232 53 210 53 c 0
187 52 164 58 144 69 c 0
124 79 107 94 93 112 c 0
65 147 52 193 52 239 c 0
51 284 64 329 92 365 c 0
105 383 123 398 143 409 c 0
163 419 185 425 208 426 c 0
230 426 253 420 273 409 c 0
293 399 310 384 324 366 c 0
352 331 365 285 366 240 c 0
Z
209 353 m 0
196 352 183 348 172 341 c 0
162 334 153 324 147 313 c 0
134 291 131 264 131 239 c 0
130 213 134 186 147 164 c 0
153 153 162 143 172 136 c 0
183 129 196 125 209 125 c 0
221 124 234 129 245 136 c 0
255 143 264 153 270 164 c 0
283 186 286 213 287 239 c 0
286 264 283 291 270 313 c 0
264 324 255 334 245 341 c 0
234 348 221 352 209 353 c 0
Z
306 238 m 0
305 208 299 178 283 154 c 0
274 142 264 131 251 124 c 0
239 116 224 112 210 112 c 0
195 111 180 116 167 123 c 0
154 131 143 142 134 154 c 0
118 179 111 210 112 240 c 0
112 269 118 299 134 323 c 0
143 335 153 346 166 353 c 0
178 361 193 365 208 366 c 0
222 366 237 361 250 354 c 0
263 346 274 335 283 323 c 0
299 298 306 267 306 238 c 0
Z
Spiro
209 472 c
12 239 c
209 6 c
406 239 c
425 240 c
208 -6 c
-6 238 c
210 485 c
209 413 c
71 240 c
209 66 c
347 239 c
366 240 c
210 53 c
52 239 c
208 426 c
209 353 c
131 239 c
209 125 c
287 239 c
306 238 c
210 112 c
112 240 c
208 366 c
0 0 z
EndSpiro
EndSplineSet
        EndChar
StartChar: w
Encoding: 119 119 0
Width: 706
InSpiro: 1
        Flags: H
        LayerCount: 2
        Back
        SplineSet
59 422 m 0
60 421 l 0
181 59 l 0
301 419 l 0
301 419 l 0
421 59 l 0
543 421 l 0
422 56 l 0
421 56 l 0
299 420 l 0
299 420 l 0
303 420 l 0
303 420 l 0
182 56 l 0
181 56 l 0
59 422 l 0
Z
60 423 m 0
62 422 l 0
181 64 l 0
300 422 l 0
300 422 l 0
302 422 l 0
302 422 l 0
421 64 l 0
541 422 l 0
422 61 l 0
421 61 l 0
301 421 l 0
301 421 l 0
182 61 l 0
181 61 l 0
60 423 l 0
Z
61 423 m 0
63 422 l 0
181 70 l 0
298 424 l 0
298 424 l 0
304 424 l 0
304 424 l 0
422 70 l 0
540 422 l 0
422 67 l 0
421 67 l 0
303 423 l 0
299 423 l 0
182 67 l 0
181 67 l 0
61 423 l 0
Z
Spiro
59 422 v
60 421 v
181 59 v
301 419 v
301 419 v
421 59 v
543 421 v
422 56 v
421 56 v
299 420 v
299 420 v
303 420 v
303 420 v
182 56 v
181 56 v
60 423 v
62 422 v
181 64 v
300 422 v
300 422 v
302 422 v
302 422 v
421 64 v
541 422 v
422 61 v
421 61 v
301 421 v
301 421 v
182 61 v
181 61 v
61 423 v
63 422 v
181 70 v
298 424 v
298 424 v
304 424 v
304 424 v
422 70 v
540 422 v
422 67 v
421 67 v
303 423 v
299 423 v
182 67 v
181 67 v
0 0 z
EndSpiro
EndSplineSet
        Fore
        SplineSet
-32 449 m 0
19 426 l 0
180 -67 l 0
326 340 l 0
273 340 l 0
418 -67 l 0
603 427 l 0
442 -149 l 0
397 -149 l 0
219 380 l 0
219 380 l 0
379 380 l 0
379 380 l 0
202 -149 l 0
157 -149 l 0
-32 449 l 0
Z
24 468 m 0
76 445 l 0
179 124 l 0
274 440 l 0
274 440 l 0
324 440 l 0
324 440 l 0
419 124 l 0
546 446 l 0
442 40 l 0
397 40 l 0
297 415 l 0
301 415 l 0
202 40 l 0
157 40 l 0
24 468 l 0
Z
82 486 m 0
133 463 l 0
177 322 l 0
214 500 l 0
214 500 l 0
384 500 l 0
384 500 l 0
422 322 l 0
489 464 l 0
442 229 l 0
397 229 l 0
344 460 l 0
254 460 l 0
202 229 l 0
157 229 l 0
82 486 l 0
Z
Spiro
-32 449 v
19 426 v
180 -67 v
326 340 v
273 340 v
418 -67 v
603 427 v
442 -149 v
397 -149 v
219 380 v
219 380 v
379 380 v
379 380 v
202 -149 v
157 -149 v
24 468 v
76 445 v
179 124 v
274 440 v
274 440 v
324 440 v
324 440 v
419 124 v
546 446 v
442 40 v
397 40 v
297 415 v
301 415 v
202 40 v
157 40 v
82 486 v
133 463 v
177 322 v
214 500 v
214 500 v
384 500 v
384 500 v
422 322 v
489 464 v
442 229 v
397 229 v
344 460 v
254 460 v
202 229 v
157 229 v
0 0 z
EndSpiro
EndSplineSet
        EndChar
StartChar: x
Encoding: 120 120 0
Width: 526
InSpiro: 1
        Flags: H
        LayerCount: 2
        Back
        SplineSet
59 421 m 0
60 420 l 0
360 60 l 0
59 421 l 0
Z
60 423 m 0
62 422 l 0
362 61 l 0
60 423 l 0
Z
61 424 m 0
63 423 l 0
363 62 l 0
61 424 l 0
Z
360 424 m 0
361 423 l 0
60 62 l 0
360 424 l 0
Z
362 423 m 0
363 422 l 0
61 61 l 0
362 423 l 0
Z
363 421 m 0
364 420 l 0
62 60 l 0
363 421 l 0
Z
Spiro
59 421 v
60 420 v
360 60 v
60 423 v
62 422 v
362 61 v
61 424 v
63 423 v
363 62 v
360 424 v
361 423 v
60 62 v
362 423 v
363 422 v
61 61 v
363 421 v
364 420 v
62 60 v
0 0 z
EndSpiro
EndSplineSet
        Fore
        SplineSet
-37 412 m 0
18 409 l 0
336 0 l 0
-37 412 l 0
Z
8 451 m 0
64 448 l 0
382 38 l 0
8 451 l 0
Z
54 489 m 0
110 486 l 0
428 76 l 0
54 489 l 0
Z
339 513 m 0
347 460 l 0
-4 76 l 0
339 513 l 0
Z
385 475 m 0
393 422 l 0
41 38 l 0
385 475 l 0
Z
431 436 m 0
439 383 l 0
87 0 l 0
431 436 l 0
Z
Spiro
-37 412 v
18 409 v
336 0 v
8 451 v
64 448 v
382 38 v
54 489 v
110 486 v
428 76 v
339 513 v
347 460 v
-4 76 v
385 475 v
393 422 v
41 38 v
431 436 v
439 383 v
87 0 v
0 0 z
EndSpiro
EndSplineSet
        EndChar
StartChar: y
Encoding: 121 121 0
Width: 526
InSpiro: 1
        Flags: H
        LayerCount: 2
        Back
        SplineSet
359 423 m 0
360 422 l 0
360 62 l 0
359 1 359 -60 338 -117 c 0
327 -146 312 -173 290 -194 c 0
268 -215 240 -231 211 -236 c 0
178 -241 144 -233 116 -215 c 0
89 -197 69 -168 62 -136 c 0
69 -167 89 -196 116 -214 c 0
143 -232 177 -240 210 -235 c 0
239 -230 267 -214 289 -193 c 0
310 -172 326 -145 337 -117 c 0
358 -60 358 1 359 62 c 0
359 423 l 0
Z
361 423 m 0
362 422 l 0
362 62 l 0
361 0 361 -61 340 -118 c 0
329 -147 313 -174 291 -195 c 0
269 -217 242 -232 212 -238 c 0
178 -243 143 -236 115 -217 c 0
88 -199 67 -169 60 -137 c 0
67 -169 88 -198 115 -216 c 0
143 -235 178 -242 211 -237 c 0
241 -231 268 -216 290 -195 c 0
312 -173 328 -147 339 -118 c 0
360 -61 360 1 361 62 c 0
361 423 l 0
Z
363 423 m 0
364 422 l 0
364 62 l 0
363 0 363 -62 341 -119 c 0
330 -148 314 -175 292 -197 c 0
270 -218 242 -234 212 -239 c 0
178 -244 143 -236 115 -218 c 0
87 -199 67 -169 60 -137 c 0
67 -169 87 -198 115 -217 c 0
143 -235 178 -243 211 -238 c 0
241 -233 269 -217 291 -196 c 0
313 -175 329 -148 340 -119 c 0
362 -62 362 0 363 62 c 0
363 423 l 0
Z
60 423 m 0
60 422 l 0
60 242 l 0
59 219 60 196 64 174 c 0
69 152 78 131 92 113 c 0
106 96 124 82 145 73 c 0
165 64 188 59 211 60 c 0
233 60 255 64 276 73 c 0
297 82 315 96 329 114 c 0
342 131 352 153 356 175 c 0
361 196 361 219 362 242 c 0
363 422 l 0
363 242 l 0
363 219 362 196 358 174 c 0
353 152 344 131 330 114 c 0
316 96 298 82 277 73 c 0
257 64 234 60 212 60 c 0
189 59 166 63 146 72 c 0
125 81 106 95 92 113 c 0
78 131 69 152 65 174 c 0
60 196 59 219 60 242 c 0
60 423 l 0
Z
61 423 m 0
62 422 l 0
62 242 l 0
61 219 62 197 66 175 c 0
71 153 80 132 94 115 c 0
107 97 125 83 146 74 c 0
166 65 188 61 211 62 c 0
233 62 255 66 275 75 c 0
295 84 314 98 327 115 c 0
341 133 350 154 354 175 c 0
359 197 359 219 360 242 c 0
361 422 l 0
361 242 l 0
361 219 360 197 356 175 c 0
351 153 342 132 328 115 c 0
315 97 297 83 276 74 c 0
256 65 234 61 212 61 c 0
189 60 166 64 146 73 c 0
125 82 107 96 93 114 c 0
79 131 70 153 65 175 c 0
61 196 60 219 61 242 c 0
61 423 l 0
Z
63 423 m 0
64 422 l 0
64 242 l 0
63 220 64 197 68 176 c 0
73 154 82 134 95 116 c 0
108 99 126 85 146 76 c 0
166 67 189 63 211 64 c 0
232 64 254 68 274 77 c 0
294 86 312 99 326 117 c 0
339 134 348 155 352 176 c 0
357 198 357 220 358 242 c 0
359 422 l 0
359 242 l 0
359 220 358 197 354 176 c 0
349 154 340 134 327 116 c 0
314 99 296 85 276 76 c 0
256 67 233 63 212 63 c 0
189 62 167 66 147 75 c 0
126 84 108 98 95 115 c 0
81 133 72 154 67 175 c 0
63 197 62 219 63 242 c 0
63 423 l 0
Z
Spiro
359 423 v
360 422 v
360 62 ]
211 -236 c
62 -136 v
210 -235 c
359 62 [
361 423 v
362 422 v
362 62 ]
212 -238 c
60 -137 v
211 -237 c
361 62 [
363 423 v
364 422 v
364 62 ]
212 -239 c
60 -137 v
211 -238 c
363 62 [
60 423 v
60 422 v
60 242 ]
211 60 c
362 242 [
363 422 v
363 242 ]
212 60 c
60 242 [
61 423 v
62 422 v
62 242 ]
211 62 c
360 242 [
361 422 v
361 242 ]
212 61 c
61 242 [
63 423 v
64 422 v
64 242 ]
211 64 c
358 242 [
359 422 v
359 242 ]
212 63 c
63 242 [
0 0 z
EndSpiro
EndSplineSet
        Fore
        SplineSet
283 477 m 0
325 440 l 0
326 60 l 0
326 7 327 -46 311 -97 c 0
303 -122 290 -146 271 -165 c 0
253 -184 228 -197 202 -199 c 0
175 -200 148 -190 130 -171 c 0
112 -152 102 -125 105 -99 c 0
108 -119 120 -138 137 -149 c 0
154 -161 176 -165 197 -160 c 0
217 -154 235 -140 247 -123 c 0
259 -106 267 -86 271 -66 c 0
280 -24 279 17 280 60 c 0
283 477 l 0
Z
343 477 m 0
385 440 l 0
386 60 l 0
386 -6 385 -75 359 -136 c 0
346 -167 327 -196 302 -218 c 0
277 -240 246 -255 213 -259 c 0
171 -263 128 -249 98 -222 c 0
67 -194 48 -153 49 -112 c 0
53 -147 73 -180 103 -200 c 0
132 -221 171 -228 206 -220 c 0
233 -213 257 -197 277 -177 c 0
296 -157 310 -132 319 -106 c 0
338 -53 339 3 340 60 c 0
343 477 l 0
Z
403 477 m 0
445 440 l 0
446 60 l 0
446 -20 443 -104 408 -177 c 0
390 -213 365 -246 333 -271 c 0
301 -296 263 -313 223 -318 c 0
167 -324 109 -307 65 -271 c 0
22 -235 -4 -181 -8 -125 c 0
0 -175 28 -221 70 -250 c 0
112 -279 166 -289 216 -279 c 0
250 -271 282 -254 308 -231 c 0
334 -207 354 -178 368 -146 c 0
396 -82 399 -10 400 60 c 0
403 477 l 0
Z
-16 477 m 0
25 440 l 0
26 240 l 0
26 212 26 184 32 158 c 0
37 131 48 105 65 83 c 0
82 61 104 44 129 33 c 0
154 22 182 18 210 20 c 0
236 21 262 28 286 40 c 0
309 52 330 69 346 91 c 0
362 112 373 136 380 161 c 0
387 187 391 213 394 240 c 0
417 448 l 0
440 240 l 0
443 205 446 171 441 137 c 0
435 103 421 70 398 45 c 0
375 19 344 1 311 -9 c 0
279 -19 244 -21 210 -20 c 0
176 -18 143 -13 112 -1 c 0
81 9 53 28 31 53 c 0
9 78 -5 108 -13 141 c 0
-20 173 -20 206 -20 240 c 0
-16 477 l 0
Z
43 477 m 0
85 440 l 0
86 240 l 0
86 220 86 201 89 182 c 0
93 163 100 145 110 129 c 0
121 113 136 99 153 91 c 0
170 82 189 78 209 79 c 0
227 79 246 85 262 94 c 0
278 104 292 117 302 133 c 0
313 148 320 166 325 184 c 0
329 202 331 221 334 240 c 0
357 448 l 0
380 240 l 0
382 214 385 187 381 161 c 0
377 136 366 111 349 91 c 0
332 71 310 56 285 48 c 0
260 40 234 38 208 40 c 0
183 41 158 46 135 55 c 0
112 65 92 80 76 99 c 0
60 118 50 141 45 166 c 0
39 190 39 215 40 240 c 0
43 477 l 0
Z
103 477 m 0
145 440 l 0
146 240 l 0
146 217 146 194 156 174 c 0
161 164 168 155 177 148 c 0
186 142 197 138 209 139 c 0
219 139 230 143 239 150 c 0
247 157 254 166 259 176 c 0
269 195 271 218 274 240 c 0
297 448 l 0
320 240 l 0
321 222 323 204 321 187 c 0
318 169 312 152 301 138 c 0
291 124 276 113 260 107 c 0
243 100 225 98 208 100 c 0
191 101 174 105 159 112 c 0
145 120 131 131 122 144 c 0
112 158 106 173 102 190 c 0
99 206 99 223 100 240 c 0
103 477 l 0
Z
Spiro
283 477 v
325 440 v
326 60 ]
202 -199 c
105 -99 v
197 -160 c
280 60 [
343 477 v
385 440 v
386 60 ]
213 -259 c
49 -112 v
206 -220 c
340 60 [
403 477 v
445 440 v
446 60 ]
223 -318 c
-8 -125 v
216 -279 c
400 60 [
-16 477 v
25 440 v
26 240 ]
210 20 c
394 240 [
417 448 v
440 240 ]
210 -20 c
-20 240 [
43 477 v
85 440 v
86 240 ]
209 79 c
334 240 [
357 448 v
380 240 ]
208 40 c
40 240 [
103 477 v
145 440 v
146 240 ]
209 139 c
274 240 [
297 448 v
320 240 ]
208 100 c
100 240 [
0 0 z
EndSpiro
EndSplineSet
        EndChar
StartChar: £
Encoding: 163 163 0
Width: 526
InSpiro: 1
        Flags: H
        LayerCount: 2
        Back
        SplineSet
363 559 m 0
362 560 l 0
364 578 361 597 353 614 c 0
345 631 333 646 317 657 c 0
302 667 283 673 265 674 c 0
246 675 227 670 211 662 c 0
187 648 169 626 157 602 c 0
146 577 140 551 138 524 c 0
132 470 135 416 135 362 c 0
135 61 l 0
134 362 l 0
133 416 130 470 136 524 c 0
139 551 145 578 156 603 c 0
168 627 186 649 210 663 c 0
226 672 245 676 264 675 c 0
283 674 302 668 318 658 c 0
334 647 346 632 354 614 c 0
362 597 365 577 363 559 c 0
Z
361 560 m 0
360 561 l 0
362 579 359 597 351 614 c 0
343 631 331 645 316 655 c 0
301 666 283 672 264 673 c 0
246 673 228 669 212 661 c 0
188 648 170 626 159 601 c 0
147 577 142 550 139 523 c 0
134 469 137 415 137 362 c 0
137 61 l 0
136 362 l 0
135 416 132 470 138 524 c 0
141 550 146 577 158 602 c 0
169 626 187 649 211 662 c 0
227 670 246 675 264 674 c 0
283 673 301 667 317 656 c 0
332 646 345 631 352 614 c 0
360 597 363 578 361 560 c 0
Z
359 560 m 0
358 561 l 0
359 578 357 597 349 613 c 0
341 629 329 643 315 653 c 0
300 663 282 669 264 670 c 0
246 671 228 667 213 659 c 0
189 646 171 624 160 600 c 0
149 575 144 549 141 522 c 0
136 469 139 415 139 362 c 0
139 61 l 0
138 362 l 0
137 415 134 469 140 522 c 0
142 549 148 576 159 600 c 0
170 625 188 647 212 660 c 0
228 668 246 672 264 671 c 0
282 671 300 665 315 654 c 0
331 644 343 630 350 613 c 0
358 596 361 578 359 560 c 0
Z
60 60 m 0
60 60 l 0
363 60 l 0
60 60 l 0
Z
60 61 m 0
61 62 l 0
363 62 l 0
60 61 l 0
Z
60 63 m 0
61 64 l 0
363 64 l 0
60 63 l 0
Z
60 359 m 0
60 360 l 0
213 360 l 0
60 359 l 0
Z
60 361 m 0
61 362 l 0
213 362 l 0
60 361 l 0
Z
60 363 m 0
61 364 l 0
213 364 l 0
60 363 l 0
Z
Spiro
363 559 v
362 560 v
211 662 c
135 362 [
135 61 v
134 362 ]
210 663 c
361 560 v
360 561 v
212 661 c
137 362 [
137 61 v
136 362 ]
211 662 c
359 560 v
358 561 v
213 659 c
139 362 [
139 61 v
138 362 ]
212 660 c
60 60 v
60 60 v
363 60 v
60 61 v
61 62 v
363 62 v
60 63 v
61 64 v
363 64 v
60 359 v
60 360 v
213 360 v
60 361 v
61 362 v
213 362 v
60 363 v
61 364 v
213 364 v
0 0 z
EndSpiro
EndSplineSet
        Fore
        SplineSet
424 493 m 0
390 536 l 0
400 561 403 591 396 618 c 0
389 646 373 671 351 689 c 0
329 706 301 717 273 718 c 0
245 719 217 711 194 695 c 0
169 677 151 652 138 625 c 0
126 598 119 568 115 539 c 0
106 479 105 419 101 360 c 0
78 31 l 0
55 360 l 0
50 427 45 496 59 563 c 0
66 596 78 628 96 657 c 0
115 686 139 711 169 728 c 0
202 746 241 755 279 750 c 0
317 746 354 729 382 703 c 0
410 677 430 642 437 605 c 0
445 567 440 527 424 493 c 0
Z
368 500 m 0
332 542 l 0
338 556 340 573 336 589 c 0
333 605 324 620 312 631 c 0
300 642 285 649 269 651 c 0
252 653 236 649 222 642 c 0
200 629 185 607 176 584 c 0
168 560 165 535 165 510 c 0
163 460 164 409 161 360 c 0
138 31 l 0
115 360 l 0
110 417 105 475 113 533 c 0
118 561 125 589 139 615 c 0
153 640 173 663 199 677 c 0
223 690 251 695 279 691 c 0
306 686 332 673 351 653 c 0
370 633 382 606 385 579 c 0
388 552 382 523 368 500 c 0
Z
324 512 m 0
278 543 l 0
281 553 278 565 272 573 c 0
265 582 254 587 244 587 c 0
233 586 223 581 216 573 c 0
209 566 204 556 202 546 c 0
198 525 202 504 207 484 c 0
212 463 218 443 220 422 c 0
223 401 222 380 221 360 c 0
198 31 l 0
175 360 l 0
171 408 165 457 167 505 c 0
168 530 173 554 183 576 c 0
194 598 212 617 235 626 c 0
249 631 266 632 282 627 c 0
297 623 311 614 321 601 c 0
330 588 336 573 337 557 c 0
337 541 333 525 324 512 c 0
Z
0 -18 m 0
37 20 l 0
391 0 l 0
0 -18 l 0
Z
0 41 m 0
37 80 l 0
391 60 l 0
0 41 l 0
Z
0 101 m 0
37 140 l 0
391 120 l 0
0 101 l 0
Z
0 281 m 0
37 320 l 0
241 300 l 0
0 281 l 0
Z
0 341 m 0
37 380 l 0
241 360 l 0
0 341 l 0
Z
0 401 m 0
37 440 l 0
241 420 l 0
0 401 l 0
Z
Spiro
424 493 v
390 536 v
194 695 c
101 360 [
78 31 v
55 360 ]
169 728 c
368 500 v
332 542 v
222 642 c
161 360 [
138 31 v
115 360 ]
199 677 c
324 512 v
278 543 v
244 587 c
221 360 [
198 31 v
175 360 ]
235 626 c
0 -18 v
37 20 v
391 0 v
0 41 v
37 80 v
391 60 v
0 101 v
37 140 v
391 120 v
0 281 v
37 320 v
241 300 v
0 341 v
37 380 v
241 360 v
0 401 v
37 440 v
241 420 v
0 0 z
EndSpiro
EndSplineSet
        EndChar
